<svg width="1920" height="1080" viewBox="0 0 1920 1080" fill="none" xmlns="http://www.w3.org/2000/svg">
<rect width="1920" height="1080" fill="white"/>
<g clip-path="url(#clip0_6_41)">
<path d="M708 377V629H960H1212V377V125H960H708V377ZM973.289 166.836C987.415 170.872 999.08 180.47 1005.28 193.168C1009.76 202.421 1010.89 208.77 1010.6 223.29C1010.45 231.805 1010.4 232.149 1009.02 234.955C1004.89 243.371 995.29 246.964 987.218 243.174C983.527 241.402 980.672 238.548 978.851 234.856C977.571 232.149 977.522 231.657 977.227 221.469C976.98 211.379 976.882 210.739 975.652 208.13C970.139 196.269 953.552 195.087 946.268 206.014C943.118 210.837 943.216 207.048 943.364 294.312C943.512 369.568 943.561 373.407 944.398 374.933C945.923 377.738 947.252 377.984 960 377.984C972.452 377.984 973.83 377.738 975.504 375.228C976.439 373.899 976.488 372.521 976.784 351.898C977.128 328.47 977.177 327.781 979.983 319.512C986.873 298.791 1003.02 282.254 1023.49 274.92C1037.91 269.703 1055.29 269.654 1069.76 274.723C1090.87 282.155 1107.07 298.841 1114.01 320.251C1117.99 332.555 1117.99 349.831 1113.96 361.939C1112.04 367.698 1108.44 375.228 1105.15 380.199C1101.75 385.367 1091.41 395.703 1086.25 399.099C1081.47 402.249 1073.79 406.039 1068.68 407.712C1060.41 410.518 1059.72 410.567 1036.29 410.912C1016.11 411.207 1014.29 411.256 1012.86 412.142C1009.76 414.012 1009.96 409.287 1009.81 477.652C1009.66 548.429 1009.46 544.688 1013.35 549.413C1016.21 552.859 1018.77 554.532 1022.7 555.516C1025.61 556.205 1026.59 556.255 1029.6 555.713C1033.78 555.024 1036.44 553.548 1039.39 550.25C1042.88 546.362 1043.28 544.737 1043.62 532.777C1043.97 520.965 1044.31 519.685 1048.3 515.403C1056.27 506.888 1070.15 509.005 1075.17 519.488L1076.65 522.589V533.909C1076.65 546.509 1076.21 550.102 1073.74 556.452C1067.4 572.841 1053.56 584.802 1036.78 588.247C1032.89 589.084 1030.88 589.182 1024.72 588.985C1016.55 588.69 1013.94 588.099 1007.2 585.245C998.637 581.553 989.827 574.269 984.954 566.837C982.444 563.096 979.54 556.845 978.113 552.219L976.98 548.527L976.734 482.082C976.488 419.623 976.439 415.489 975.602 414.259C973.683 411.305 973.24 411.207 960 411.207C949.27 411.207 947.745 411.305 946.563 412.093C943.463 414.111 943.561 413.471 943.216 437.539C942.872 461.262 942.823 461.656 939.82 470.319C935.145 483.805 926.433 495.863 915.26 504.28C907.533 510.038 895.966 515.255 886.812 517.126C880.61 518.356 865.402 518.356 859.594 517.126C850.833 515.255 841.186 511.17 833.606 506.15C828.34 502.606 821.055 495.617 817.02 490.252C810.572 481.688 805.207 469.137 803.681 459.097C802.648 452.305 802.992 439.114 804.42 433.06C807.323 420.411 814.263 408.008 823.664 398.656C831.539 390.781 840.891 385.023 851.522 381.479C859.938 378.624 862.842 378.329 885.68 378.034C902.414 377.787 906.795 377.591 907.631 377.049C910.191 375.376 910.043 380.445 910.289 290.621L910.535 206.949L911.667 203.012C913.095 197.893 917.426 189.083 920.527 185.047C927.811 175.449 939.082 168.411 950.895 166.048C956.161 165.015 968.515 165.458 973.289 166.836Z" fill="#0067B0"/>
<path d="M1037.47 305.337C1029.2 307.503 1022.56 311.884 1017.59 318.528C1013.89 323.401 1013.06 325.074 1011.34 330.587L1010.01 334.918L1009.96 354.409C1009.96 375.425 1010.01 375.72 1012.57 377.049C1013.55 377.591 1017.83 377.738 1033.53 377.738H1053.27L1057.7 376.36C1063.9 374.441 1068.23 371.734 1073.2 366.713C1080.44 359.429 1083.79 351.209 1083.69 340.824C1083.64 326.846 1076.25 314.738 1063.8 308.094C1056.57 304.255 1046.03 303.172 1037.47 305.337Z" fill="#0067B0"/>
<path d="M868.847 411.502C861.366 412.585 856.345 414.652 850.587 418.934C837.15 428.877 832.425 447.875 839.463 463.527C845.419 476.766 858.56 485.084 873.375 484.986C891.192 484.887 905.81 472.927 909.354 455.455C910.24 451.123 910.338 449.056 910.191 432.913C910.043 413.57 910.092 413.914 907.139 412.142C905.712 411.256 904.284 411.207 888.633 411.109C879.281 411.109 870.373 411.256 868.847 411.502Z" fill="#0067B0"/>
</g>
<path d="M445.776 797H423.105L452.551 709.727H480.634L510.08 797H487.409L466.912 731.716H466.23L445.776 797ZM442.75 762.653H490.137V778.676H442.75V762.653ZM545.929 798.236C539.025 798.236 533.102 796.815 528.159 793.974C523.244 791.134 519.466 787.185 516.824 782.128C514.181 777.043 512.86 771.162 512.86 764.486C512.86 757.781 514.181 751.901 516.824 746.844C519.494 741.759 523.287 737.795 528.201 734.955C533.145 732.114 539.039 730.693 545.886 730.693C551.937 730.693 557.207 731.787 561.696 733.974C566.213 736.162 569.735 739.259 572.264 743.264C574.821 747.241 576.17 751.915 576.312 757.284H556.838C556.44 753.932 555.304 751.304 553.429 749.401C551.582 747.497 549.167 746.545 546.184 746.545C543.77 746.545 541.653 747.227 539.835 748.591C538.017 749.926 536.596 751.915 535.574 754.557C534.579 757.17 534.082 760.409 534.082 764.273C534.082 768.136 534.579 771.403 535.574 774.074C536.596 776.716 538.017 778.719 539.835 780.082C541.653 781.418 543.77 782.085 546.184 782.085C548.116 782.085 549.821 781.673 551.298 780.849C552.804 780.026 554.039 778.818 555.005 777.227C555.971 775.608 556.582 773.648 556.838 771.347H576.312C576.113 776.744 574.764 781.46 572.264 785.494C569.792 789.528 566.312 792.668 561.824 794.912C557.363 797.128 552.065 798.236 545.929 798.236ZM617.53 798.236C610.627 798.236 604.703 796.815 599.76 793.974C594.846 791.134 591.067 787.185 588.425 782.128C585.783 777.043 584.462 771.162 584.462 764.486C584.462 757.781 585.783 751.901 588.425 746.844C591.096 741.759 594.888 737.795 599.803 734.955C604.746 732.114 610.641 730.693 617.488 730.693C623.539 730.693 628.809 731.787 633.297 733.974C637.814 736.162 641.337 739.259 643.865 743.264C646.422 747.241 647.772 751.915 647.914 757.284H628.439C628.042 753.932 626.905 751.304 625.03 749.401C623.184 747.497 620.769 746.545 617.786 746.545C615.371 746.545 613.255 747.227 611.436 748.591C609.618 749.926 608.198 751.915 607.175 754.557C606.181 757.17 605.684 760.409 605.684 764.273C605.684 768.136 606.181 771.403 607.175 774.074C608.198 776.716 609.618 778.719 611.436 780.082C613.255 781.418 615.371 782.085 617.786 782.085C619.718 782.085 621.422 781.673 622.9 780.849C624.405 780.026 625.641 778.818 626.607 777.227C627.573 775.608 628.184 773.648 628.439 771.347H647.914C647.715 776.744 646.365 781.46 643.865 785.494C641.394 789.528 637.914 792.668 633.425 794.912C628.965 797.128 623.667 798.236 617.53 798.236ZM689.174 798.236C682.328 798.236 676.419 796.886 671.447 794.188C666.504 791.46 662.697 787.582 660.027 782.554C657.385 777.497 656.064 771.489 656.064 764.528C656.064 757.767 657.399 751.858 660.069 746.801C662.74 741.716 666.504 737.767 671.362 734.955C676.22 732.114 681.944 730.693 688.535 730.693C693.194 730.693 697.456 731.418 701.319 732.866C705.183 734.315 708.521 736.46 711.333 739.301C714.146 742.142 716.333 745.651 717.896 749.827C719.458 753.974 720.24 758.733 720.24 764.102V769.301H663.35V757.199H700.85C700.822 754.983 700.297 753.009 699.274 751.276C698.251 749.543 696.845 748.193 695.055 747.227C693.294 746.233 691.262 745.736 688.961 745.736C686.632 745.736 684.544 746.261 682.697 747.312C680.85 748.335 679.387 749.741 678.308 751.531C677.228 753.293 676.66 755.295 676.603 757.54V769.855C676.603 772.526 677.129 774.869 678.18 776.886C679.231 778.875 680.723 780.423 682.654 781.531C684.586 782.639 686.887 783.193 689.558 783.193C691.404 783.193 693.081 782.937 694.586 782.426C696.092 781.915 697.385 781.162 698.464 780.168C699.544 779.173 700.353 777.952 700.893 776.503L720.027 777.057C719.231 781.347 717.484 785.082 714.785 788.264C712.115 791.418 708.606 793.875 704.26 795.636C699.913 797.369 694.885 798.236 689.174 798.236ZM788.027 751.531L768.894 752.043C768.695 750.679 768.155 749.472 767.275 748.42C766.394 747.341 765.243 746.503 763.823 745.906C762.431 745.281 760.811 744.969 758.965 744.969C756.55 744.969 754.49 745.452 752.786 746.418C751.11 747.384 750.286 748.69 750.314 750.338C750.286 751.616 750.797 752.724 751.848 753.662C752.928 754.599 754.846 755.352 757.601 755.92L770.215 758.307C776.749 759.557 781.607 761.631 784.789 764.528C787.999 767.426 789.618 771.261 789.647 776.034C789.618 780.523 788.283 784.429 785.641 787.753C783.027 791.077 779.448 793.662 774.902 795.509C770.357 797.327 765.158 798.236 759.306 798.236C749.959 798.236 742.587 796.318 737.189 792.483C731.82 788.619 728.752 783.449 727.985 776.972L748.567 776.46C749.022 778.847 750.201 780.665 752.104 781.915C754.007 783.165 756.436 783.79 759.391 783.79C762.061 783.79 764.235 783.293 765.911 782.298C767.587 781.304 768.439 779.983 768.468 778.335C768.439 776.858 767.786 775.679 766.507 774.798C765.229 773.889 763.226 773.179 760.499 772.668L749.078 770.494C742.516 769.301 737.63 767.099 734.419 763.889C731.209 760.651 729.618 756.531 729.647 751.531C729.618 747.156 730.783 743.42 733.141 740.324C735.499 737.199 738.851 734.812 743.198 733.165C747.544 731.517 752.672 730.693 758.581 730.693C767.445 730.693 774.434 732.554 779.547 736.276C784.661 739.969 787.488 745.054 788.027 751.531ZM857.051 751.531L837.917 752.043C837.718 750.679 837.179 749.472 836.298 748.42C835.417 747.341 834.267 746.503 832.846 745.906C831.454 745.281 829.835 744.969 827.988 744.969C825.574 744.969 823.514 745.452 821.809 746.418C820.133 747.384 819.309 748.69 819.338 750.338C819.309 751.616 819.821 752.724 820.872 753.662C821.951 754.599 823.869 755.352 826.625 755.92L839.238 758.307C845.772 759.557 850.63 761.631 853.812 764.528C857.022 767.426 858.642 771.261 858.67 776.034C858.642 780.523 857.306 784.429 854.664 787.753C852.051 791.077 848.471 793.662 843.926 795.509C839.38 797.327 834.181 798.236 828.329 798.236C818.983 798.236 811.61 796.318 806.213 792.483C800.843 788.619 797.775 783.449 797.008 776.972L817.591 776.46C818.045 778.847 819.224 780.665 821.127 781.915C823.031 783.165 825.46 783.79 828.414 783.79C831.085 783.79 833.258 783.293 834.934 782.298C836.61 781.304 837.463 779.983 837.491 778.335C837.463 776.858 836.809 775.679 835.531 774.798C834.252 773.889 832.25 773.179 829.522 772.668L818.102 770.494C811.539 769.301 806.653 767.099 803.443 763.889C800.233 760.651 798.642 756.531 798.67 751.531C798.642 747.156 799.806 743.42 802.164 740.324C804.522 737.199 807.875 734.812 812.221 733.165C816.568 731.517 821.696 730.693 827.605 730.693C836.468 730.693 843.457 732.554 848.571 736.276C853.684 739.969 856.511 745.054 857.051 751.531ZM894.711 797V709.727H915.804V779.869H952.111V797H894.711ZM993.585 798.236C986.71 798.236 980.801 796.83 975.858 794.017C970.943 791.176 967.15 787.227 964.48 782.17C961.838 777.085 960.517 771.19 960.517 764.486C960.517 757.753 961.838 751.858 964.48 746.801C967.15 741.716 970.943 737.767 975.858 734.955C980.801 732.114 986.71 730.693 993.585 730.693C1000.46 730.693 1006.35 732.114 1011.27 734.955C1016.21 737.767 1020.01 741.716 1022.65 746.801C1025.32 751.858 1026.65 757.753 1026.65 764.486C1026.65 771.19 1025.32 777.085 1022.65 782.17C1020.01 787.227 1016.21 791.176 1011.27 794.017C1006.35 796.83 1000.46 798.236 993.585 798.236ZM993.713 782.511C996.213 782.511 998.329 781.744 1000.06 780.21C1001.8 778.676 1003.12 776.545 1004.03 773.818C1004.96 771.091 1005.43 767.937 1005.43 764.358C1005.43 760.722 1004.96 757.54 1004.03 754.812C1003.12 752.085 1001.8 749.955 1000.06 748.42C998.329 746.886 996.213 746.119 993.713 746.119C991.127 746.119 988.94 746.886 987.15 748.42C985.389 749.955 984.039 752.085 983.102 754.812C982.193 757.54 981.738 760.722 981.738 764.358C981.738 767.937 982.193 771.091 983.102 773.818C984.039 776.545 985.389 778.676 987.15 780.21C988.94 781.744 991.127 782.511 993.713 782.511ZM1067.88 798.236C1060.98 798.236 1055.06 796.815 1050.11 793.974C1045.2 791.134 1041.42 787.185 1038.78 782.128C1036.13 777.043 1034.81 771.162 1034.81 764.486C1034.81 757.781 1036.13 751.901 1038.78 746.844C1041.45 741.759 1045.24 737.795 1050.15 734.955C1055.1 732.114 1060.99 730.693 1067.84 730.693C1073.89 730.693 1079.16 731.787 1083.65 733.974C1088.17 736.162 1091.69 739.259 1094.22 743.264C1096.77 747.241 1098.12 751.915 1098.27 757.284H1078.79C1078.39 753.932 1077.26 751.304 1075.38 749.401C1073.54 747.497 1071.12 746.545 1068.14 746.545C1065.72 746.545 1063.61 747.227 1061.79 748.591C1059.97 749.926 1058.55 751.915 1057.53 754.557C1056.53 757.17 1056.04 760.409 1056.04 764.273C1056.04 768.136 1056.53 771.403 1057.53 774.074C1058.55 776.716 1059.97 778.719 1061.79 780.082C1063.61 781.418 1065.72 782.085 1068.14 782.085C1070.07 782.085 1071.77 781.673 1073.25 780.849C1074.76 780.026 1075.99 778.818 1076.96 777.227C1077.92 775.608 1078.54 773.648 1078.79 771.347H1098.27C1098.07 776.744 1096.72 781.46 1094.22 785.494C1091.75 789.528 1088.27 792.668 1083.78 794.912C1079.32 797.128 1074.02 798.236 1067.88 798.236ZM1127.38 798.108C1123.2 798.108 1119.5 797.412 1116.26 796.02C1113.05 794.599 1110.51 792.469 1108.63 789.628C1106.78 786.759 1105.86 783.165 1105.86 778.847C1105.86 775.21 1106.5 772.142 1107.78 769.642C1109.06 767.142 1110.82 765.111 1113.06 763.548C1115.31 761.986 1117.89 760.807 1120.82 760.011C1123.74 759.187 1126.87 758.634 1130.19 758.349C1133.92 758.009 1136.91 757.653 1139.19 757.284C1141.46 756.886 1143.11 756.332 1144.13 755.622C1145.18 754.884 1145.7 753.847 1145.7 752.511V752.298C1145.7 750.111 1144.95 748.42 1143.45 747.227C1141.94 746.034 1139.91 745.438 1137.35 745.438C1134.6 745.438 1132.38 746.034 1130.7 747.227C1129.03 748.42 1127.96 750.068 1127.51 752.17L1108.29 751.489C1108.86 747.511 1110.32 743.96 1112.68 740.835C1115.07 737.682 1118.33 735.21 1122.48 733.42C1126.66 731.602 1131.67 730.693 1137.52 730.693C1141.7 730.693 1145.55 731.19 1149.07 732.185C1152.59 733.151 1155.66 734.571 1158.28 736.446C1160.89 738.293 1162.91 740.565 1164.33 743.264C1165.78 745.963 1166.5 749.045 1166.5 752.511V797H1146.9V787.881H1146.39C1145.22 790.097 1143.73 791.972 1141.91 793.506C1140.12 795.04 1138.01 796.19 1135.56 796.957C1133.15 797.724 1130.42 798.108 1127.38 798.108ZM1133.82 784.472C1136.06 784.472 1138.08 784.017 1139.87 783.108C1141.69 782.199 1143.13 780.949 1144.21 779.358C1145.29 777.739 1145.83 775.864 1145.83 773.733V767.511C1145.24 767.824 1144.51 768.108 1143.66 768.364C1142.84 768.619 1141.93 768.861 1140.93 769.088C1139.94 769.315 1138.92 769.514 1137.86 769.685C1136.81 769.855 1135.8 770.011 1134.84 770.153C1132.88 770.466 1131.2 770.949 1129.81 771.602C1128.45 772.256 1127.4 773.108 1126.66 774.159C1125.95 775.182 1125.59 776.403 1125.59 777.824C1125.59 779.983 1126.36 781.631 1127.89 782.767C1129.45 783.903 1131.43 784.472 1133.82 784.472ZM1200.08 709.727V797H1179.24V709.727H1200.08ZM1234.18 759.67V797H1213.34V709.727H1233.5V743.562H1234.22C1235.7 739.528 1238.12 736.375 1241.47 734.102C1244.85 731.83 1248.98 730.693 1253.87 730.693C1258.47 730.693 1262.48 731.716 1265.89 733.761C1269.3 735.778 1271.94 738.634 1273.81 742.327C1275.72 746.02 1276.65 750.338 1276.62 755.281V797H1255.79V759.372C1255.81 755.736 1254.91 752.895 1253.06 750.849C1251.21 748.804 1248.61 747.781 1245.26 747.781C1243.07 747.781 1241.14 748.264 1239.47 749.23C1237.82 750.168 1236.53 751.517 1235.59 753.278C1234.68 755.04 1234.21 757.17 1234.18 759.67ZM1320.19 798.236C1313.31 798.236 1307.4 796.83 1302.46 794.017C1297.54 791.176 1293.75 787.227 1291.08 782.17C1288.44 777.085 1287.12 771.19 1287.12 764.486C1287.12 757.753 1288.44 751.858 1291.08 746.801C1293.75 741.716 1297.54 737.767 1302.46 734.955C1307.4 732.114 1313.31 730.693 1320.19 730.693C1327.06 730.693 1332.96 732.114 1337.87 734.955C1342.81 737.767 1346.61 741.716 1349.25 746.801C1351.92 751.858 1353.25 757.753 1353.25 764.486C1353.25 771.19 1351.92 777.085 1349.25 782.17C1346.61 787.227 1342.81 791.176 1337.87 794.017C1332.96 796.83 1327.06 798.236 1320.19 798.236ZM1320.31 782.511C1322.81 782.511 1324.93 781.744 1326.66 780.21C1328.4 778.676 1329.72 776.545 1330.63 773.818C1331.56 771.091 1332.03 767.937 1332.03 764.358C1332.03 760.722 1331.56 757.54 1330.63 754.812C1329.72 752.085 1328.4 749.955 1326.66 748.42C1324.93 746.886 1322.81 746.119 1320.31 746.119C1317.73 746.119 1315.54 746.886 1313.75 748.42C1311.99 749.955 1310.64 752.085 1309.7 754.812C1308.79 757.54 1308.34 760.722 1308.34 764.358C1308.34 767.937 1308.79 771.091 1309.7 773.818C1310.64 776.545 1311.99 778.676 1313.75 780.21C1315.54 781.744 1317.73 782.511 1320.31 782.511ZM1421.07 751.531L1401.94 752.043C1401.74 750.679 1401.2 749.472 1400.32 748.42C1399.44 747.341 1398.29 746.503 1396.87 745.906C1395.48 745.281 1393.86 744.969 1392.01 744.969C1389.6 744.969 1387.54 745.452 1385.83 746.418C1384.16 747.384 1383.33 748.69 1383.36 750.338C1383.33 751.616 1383.84 752.724 1384.9 753.662C1385.97 754.599 1387.89 755.352 1390.65 755.92L1403.26 758.307C1409.8 759.557 1414.65 761.631 1417.84 764.528C1421.05 767.426 1422.67 771.261 1422.69 776.034C1422.67 780.523 1421.33 784.429 1418.69 787.753C1416.07 791.077 1412.49 793.662 1407.95 795.509C1403.4 797.327 1398.2 798.236 1392.35 798.236C1383.01 798.236 1375.63 796.318 1370.24 792.483C1364.87 788.619 1361.8 783.449 1361.03 776.972L1381.61 776.46C1382.07 778.847 1383.25 780.665 1385.15 781.915C1387.05 783.165 1389.48 783.79 1392.44 783.79C1395.11 783.79 1397.28 783.293 1398.96 782.298C1400.63 781.304 1401.49 779.983 1401.51 778.335C1401.49 776.858 1400.83 775.679 1399.55 774.798C1398.28 773.889 1396.27 773.179 1393.55 772.668L1382.13 770.494C1375.56 769.301 1370.68 767.099 1367.47 763.889C1364.26 760.651 1362.67 756.531 1362.69 751.531C1362.67 747.156 1363.83 743.42 1366.19 740.324C1368.55 737.199 1371.9 734.812 1376.24 733.165C1380.59 731.517 1385.72 730.693 1391.63 730.693C1400.49 730.693 1407.48 732.554 1412.59 736.276C1417.71 739.969 1420.53 745.054 1421.07 751.531ZM1469.9 731.545V746.886H1428.61V731.545H1469.9ZM1437.26 715.864H1458.09V776.418C1458.09 777.696 1458.29 778.733 1458.69 779.528C1459.12 780.295 1459.73 780.849 1460.52 781.19C1461.32 781.503 1462.27 781.659 1463.38 781.659C1464.17 781.659 1465.01 781.588 1465.89 781.446C1466.8 781.276 1467.48 781.134 1467.94 781.02L1471.09 796.062C1470.1 796.347 1468.69 796.702 1466.87 797.128C1465.08 797.554 1462.94 797.824 1460.44 797.938C1455.55 798.165 1451.36 797.597 1447.87 796.233C1444.4 794.841 1441.75 792.682 1439.9 789.756C1438.08 786.83 1437.2 783.151 1437.26 778.719V715.864ZM686.293 942V854.727H722.344C728.878 854.727 734.517 855.906 739.261 858.264C744.034 860.594 747.713 863.946 750.298 868.321C752.884 872.668 754.176 877.824 754.176 883.79C754.176 889.841 752.855 894.983 750.213 899.216C747.571 903.42 743.821 906.631 738.963 908.847C734.105 911.034 728.352 912.128 721.705 912.128H698.906V895.509H717.784C720.966 895.509 723.622 895.097 725.753 894.273C727.912 893.42 729.545 892.142 730.653 890.438C731.761 888.705 732.315 886.489 732.315 883.79C732.315 881.091 731.761 878.861 730.653 877.099C729.545 875.31 727.912 873.974 725.753 873.094C723.594 872.185 720.938 871.73 717.784 871.73H707.386V942H686.293ZM735.426 902.114L757.159 942H734.148L712.841 902.114H735.426ZM795.053 943.236C788.207 943.236 782.298 941.886 777.326 939.188C772.383 936.46 768.576 932.582 765.906 927.554C763.263 922.497 761.942 916.489 761.942 909.528C761.942 902.767 763.278 896.858 765.948 891.801C768.619 886.716 772.383 882.767 777.241 879.955C782.099 877.114 787.823 875.693 794.414 875.693C799.073 875.693 803.335 876.418 807.198 877.866C811.062 879.315 814.4 881.46 817.212 884.301C820.025 887.142 822.212 890.651 823.775 894.827C825.337 898.974 826.119 903.733 826.119 909.102V914.301H769.229V902.199H806.729C806.701 899.983 806.175 898.009 805.153 896.276C804.13 894.543 802.724 893.193 800.934 892.227C799.173 891.233 797.141 890.736 794.84 890.736C792.511 890.736 790.423 891.261 788.576 892.312C786.729 893.335 785.266 894.741 784.187 896.531C783.107 898.293 782.539 900.295 782.482 902.54V914.855C782.482 917.526 783.008 919.869 784.059 921.886C785.11 923.875 786.602 925.423 788.533 926.531C790.465 927.639 792.766 928.193 795.437 928.193C797.283 928.193 798.96 927.937 800.465 927.426C801.971 926.915 803.263 926.162 804.343 925.168C805.423 924.173 806.232 922.952 806.772 921.503L825.906 922.057C825.11 926.347 823.363 930.082 820.664 933.264C817.994 936.418 814.485 938.875 810.138 940.636C805.792 942.369 800.763 943.236 795.053 943.236ZM836.761 942V876.545H856.577V888.562H857.301C858.665 884.585 860.966 881.446 864.205 879.145C867.443 876.844 871.307 875.693 875.795 875.693C880.341 875.693 884.233 876.858 887.472 879.188C890.71 881.517 892.77 884.642 893.651 888.562H894.332C895.554 884.67 897.94 881.56 901.491 879.23C905.043 876.872 909.233 875.693 914.062 875.693C920.256 875.693 925.284 877.682 929.148 881.659C933.011 885.608 934.943 891.034 934.943 897.938V942H914.105V902.71C914.105 899.443 913.267 896.957 911.591 895.253C909.915 893.52 907.741 892.653 905.071 892.653C902.202 892.653 899.943 893.591 898.295 895.466C896.676 897.312 895.866 899.798 895.866 902.923V942H875.838V902.497C875.838 899.457 875.014 897.057 873.366 895.295C871.719 893.534 869.545 892.653 866.847 892.653C865.028 892.653 863.423 893.094 862.031 893.974C860.639 894.827 859.545 896.048 858.75 897.639C857.983 899.23 857.599 901.105 857.599 903.264V942H836.761ZM978.409 943.236C971.534 943.236 965.625 941.83 960.682 939.017C955.767 936.176 951.974 932.227 949.304 927.17C946.662 922.085 945.341 916.19 945.341 909.486C945.341 902.753 946.662 896.858 949.304 891.801C951.974 886.716 955.767 882.767 960.682 879.955C965.625 877.114 971.534 875.693 978.409 875.693C985.284 875.693 991.179 877.114 996.094 879.955C1001.04 882.767 1004.83 886.716 1007.47 891.801C1010.14 896.858 1011.48 902.753 1011.48 909.486C1011.48 916.19 1010.14 922.085 1007.47 927.17C1004.83 932.227 1001.04 936.176 996.094 939.017C991.179 941.83 985.284 943.236 978.409 943.236ZM978.537 927.511C981.037 927.511 983.153 926.744 984.886 925.21C986.619 923.676 987.94 921.545 988.849 918.818C989.787 916.091 990.256 912.937 990.256 909.358C990.256 905.722 989.787 902.54 988.849 899.812C987.94 897.085 986.619 894.955 984.886 893.42C983.153 891.886 981.037 891.119 978.537 891.119C975.952 891.119 973.764 891.886 971.974 893.42C970.213 894.955 968.864 897.085 967.926 899.812C967.017 902.54 966.562 905.722 966.562 909.358C966.562 912.937 967.017 916.091 967.926 918.818C968.864 921.545 970.213 923.676 971.974 925.21C973.764 926.744 975.952 927.511 978.537 927.511ZM1059.1 876.545V891.886H1017.81V876.545H1059.1ZM1026.46 860.864H1047.29V921.418C1047.29 922.696 1047.49 923.733 1047.89 924.528C1048.32 925.295 1048.93 925.849 1049.72 926.19C1050.52 926.503 1051.47 926.659 1052.58 926.659C1053.37 926.659 1054.21 926.588 1055.09 926.446C1056 926.276 1056.68 926.134 1057.14 926.02L1060.29 941.062C1059.3 941.347 1057.89 941.702 1056.07 942.128C1054.28 942.554 1052.14 942.824 1049.64 942.938C1044.75 943.165 1040.56 942.597 1037.07 941.233C1033.6 939.841 1030.94 937.682 1029.1 934.756C1027.28 931.83 1026.4 928.151 1026.46 923.719V860.864ZM1099.62 943.236C1092.78 943.236 1086.87 941.886 1081.9 939.188C1076.95 936.46 1073.15 932.582 1070.48 927.554C1067.83 922.497 1066.51 916.489 1066.51 909.528C1066.51 902.767 1067.85 896.858 1070.52 891.801C1073.19 886.716 1076.95 882.767 1081.81 879.955C1086.67 877.114 1092.39 875.693 1098.98 875.693C1103.64 875.693 1107.9 876.418 1111.77 877.866C1115.63 879.315 1118.97 881.46 1121.78 884.301C1124.6 887.142 1126.78 890.651 1128.35 894.827C1129.91 898.974 1130.69 903.733 1130.69 909.102V914.301H1073.8V902.199H1111.3C1111.27 899.983 1110.75 898.009 1109.72 896.276C1108.7 894.543 1107.29 893.193 1105.5 892.227C1103.74 891.233 1101.71 890.736 1099.41 890.736C1097.08 890.736 1094.99 891.261 1093.15 892.312C1091.3 893.335 1089.84 894.741 1088.76 896.531C1087.68 898.293 1087.11 900.295 1087.05 902.54V914.855C1087.05 917.526 1087.58 919.869 1088.63 921.886C1089.68 923.875 1091.17 925.423 1093.1 926.531C1095.04 927.639 1097.34 928.193 1100.01 928.193C1101.85 928.193 1103.53 927.937 1105.04 927.426C1106.54 926.915 1107.83 926.162 1108.91 925.168C1109.99 924.173 1110.8 922.952 1111.34 921.503L1130.48 922.057C1129.68 926.347 1127.93 930.082 1125.23 933.264C1122.56 936.418 1119.06 938.875 1114.71 940.636C1110.36 942.369 1105.33 943.236 1099.62 943.236ZM1162.17 854.727V942H1141.33V854.727H1162.17ZM1188.17 966.545C1185.67 966.545 1183.32 966.347 1181.1 965.949C1178.88 965.58 1176.98 965.082 1175.39 964.457L1179.99 949.33C1182.04 950.011 1183.88 950.409 1185.53 950.523C1187.21 950.636 1188.64 950.366 1189.84 949.713C1191.06 949.088 1192 947.966 1192.65 946.347L1193.46 944.386L1170.19 876.545H1192.01L1204.07 923.25H1204.75L1216.98 876.545H1238.93L1214.25 948.264C1213.06 951.844 1211.37 954.997 1209.18 957.724C1207.02 960.48 1204.23 962.639 1200.79 964.202C1197.38 965.764 1193.17 966.545 1188.17 966.545Z" fill="#0067B0"/>
<defs>
<clipPath id="clip0_6_41">
<rect width="504" height="504" fill="white" transform="translate(708 125)"/>
</clipPath>
</defs>
</svg>
