<svg width="1920" height="1080" viewBox="0 0 1920 1080" fill="none" xmlns="http://www.w3.org/2000/svg">
<rect width="1920" height="1080" fill="#1E1E1E"/>
<g clip-path="url(#clip0_0_1)">
<rect width="1920" height="1080" fill="white"/>
<path fill-rule="evenodd" clip-rule="evenodd" d="M397.769 938.61C403.019 942.952 409.174 944.804 415.818 945.146C418.566 945.29 421.394 945.155 424.098 944.663C428.387 943.884 432.664 942.905 436.836 941.648C445.332 939.085 452.674 934.655 458.155 927.501C461.278 923.423 463.842 919.014 465.488 914.139C466.848 910.116 468.125 906.053 469.142 901.937C469.944 898.693 470.343 895.345 470.829 892.031C471.154 889.84 471.351 887.625 471.553 885.413C471.881 881.824 472.224 878.241 472.461 874.644C472.628 872.142 472.622 869.628 472.719 867.123C472.751 866.358 472.874 865.6 472.947 864.841C473.009 864.135 473.366 863.892 474.087 863.903C476.618 863.941 479.155 864.006 481.684 863.892C484.517 863.766 487.37 863.643 490.159 863.177C494.128 862.512 498.066 861.671 501.96 860.657C506.554 859.453 510.77 857.3 514.83 854.851C519.553 851.994 523.865 848.646 527.354 844.33C530.398 840.574 531.84 836.221 531.104 831.472C530.038 824.572 524.24 820.052 517.499 819.744C515.056 819.633 512.577 819.891 510.146 820.198C507.201 820.573 504.301 821.235 501.365 821.672C499.338 821.977 497.284 822.111 495.263 822.322L495.207 822.059C498.986 814.919 502.924 807.861 506.498 800.625C509.243 795.07 511.587 789.319 514.01 783.606C518.023 774.149 521.226 764.402 523.88 754.491C526.42 745.005 528.594 735.416 529.282 725.572C529.558 721.644 529.748 717.697 529.722 713.763C529.704 710.622 529.364 707.479 529.051 704.35C528.693 700.764 527.609 697.365 526.109 694.096C524.135 689.783 521.067 686.247 517.842 682.89C515.261 680.2 512.419 677.751 509.604 675.302C505.587 671.81 501.069 669.018 496.382 666.542C491.068 663.72 485.439 661.537 479.612 660.038C476.062 659.143 472.488 658.341 468.895 657.633C467.618 657.375 466.329 656.719 465.043 656.719H440.82C439.944 656.719 439.077 657.293 438.195 657.39C432.398 658.022 426.674 659.204 421.101 660.92C419.021 661.562 417.122 661.187 415.145 661.002C413.627 660.861 412.136 660.472 410.618 660.396C404.844 660.108 399.063 659.692 393.286 659.754C387.755 659.812 382.279 660.727 376.927 662.244C372.447 663.521 368.062 665.071 364.042 667.43C362.325 668.438 360.96 668.247 359.182 667.737C353.209 665.988 347.185 664.421 341.117 663.038C337.335 662.191 333.441 661.764 329.577 661.365C325.869 660.98 322.146 660.748 318.418 660.671C314.779 660.592 311.117 660.595 307.493 660.917C301.725 661.43 296.067 662.602 290.565 664.494C284.501 666.568 278.833 669.66 273.808 673.638C268.681 677.695 264.567 682.644 261.266 688.301C257.782 694.269 255.389 700.658 253.906 707.364C253.101 711 253.396 714.738 252.843 718.43C252.673 719.572 253.016 720.721 253.016 721.869V737.938C253.016 739.005 252.702 740.074 252.837 741.146C253.168 743.722 253.054 746.317 253.49 748.875C254.176 752.924 254.794 756.958 255.626 760.978C256.789 766.594 257.899 772.204 259.188 777.794C260.126 781.863 261.143 785.909 262.259 789.932C263.958 796.078 265.616 802.233 267.541 808.307C269.331 813.952 271.37 819.516 273.406 825.082C276.196 832.779 279.616 840.233 283.631 847.368C287.132 853.553 291.125 859.345 296.486 864.105C300.022 867.246 303.951 869.657 308.524 870.864C312.097 871.813 315.841 871.917 319.461 871.169C323.657 870.316 327.577 868.439 330.872 865.705C331.259 865.392 331.678 865.148 332.138 865.729C333.878 867.932 336.204 869.402 338.639 870.671C345.207 874.099 352.364 875.127 359.633 875.543C361.396 875.643 363.172 875.391 364.944 875.344C368.404 875.247 371.762 874.573 375.063 873.618C376.798 873.117 378.488 872.479 380.252 871.887C380.343 873.765 380.46 875.569 380.519 877.377L380.762 887.229C380.809 888.729 380.867 890.229 381.005 891.724C381.362 895.573 381.711 899.423 382.171 903.261C382.487 905.906 382.821 908.569 383.442 911.153C384.691 916.361 386.399 921.447 388.546 926.353C390.601 931.114 393.763 935.316 397.769 938.61ZM387.248 889.485C387.04 884.859 386.885 880.231 386.782 875.602C386.659 869.912 386.618 864.22 386.539 858.53L386.524 858.313C383.633 860.051 380.782 861.949 377.768 863.517C374.231 865.354 370.394 866.417 366.418 866.719C363.304 866.953 360.143 867.167 357.043 866.921C351.957 866.508 346.871 865.714 342.318 863.206C340.473 862.189 338.545 860.95 337.271 859.33C334.221 855.437 335.683 850.518 340.282 848.15C343.461 846.51 346.93 845.827 350.375 845.03C353.374 844.35 356.342 843.539 359.27 842.599C362.158 841.652 363.98 839.309 365.782 837.009L368.636 833.341L365.205 832.983C361.801 832.667 358.552 831.727 355.446 830.35C352.792 829.175 352.751 829.046 350.8 831.161C347.548 834.691 344.384 838.31 341.193 841.901C338.847 844.544 336.518 847.201 334.177 849.853C331.868 852.475 329.7 855.243 327.207 857.681C323.51 861.302 319.051 863.479 313.73 863.232C310.317 863.074 307.194 861.879 304.382 859.925C298.584 855.888 294.679 850.233 291.119 844.301C286.563 836.695 283.063 828.595 280.071 820.274C278 814.521 275.917 808.764 274.112 802.928C272.146 796.585 270.421 790.169 268.725 783.747C267.441 778.904 266.305 774.021 265.221 769.128C263.973 763.567 262.818 757.985 261.758 752.385C261.052 748.603 260.645 744.765 260.073 740.959C259.303 735.823 259.162 730.646 259.443 725.493C259.692 720.85 260.357 716.221 261.02 711.609C261.937 705.229 264.04 699.208 267.063 693.521C268.929 690.056 271.214 686.835 273.869 683.93C278.234 679.099 283.517 675.609 289.394 672.987C293.498 671.156 297.837 670.058 302.258 669.193C308.82 667.916 315.441 667.969 322.063 668.104C324.957 668.165 327.843 668.689 330.734 668.979C336.963 669.598 343.065 670.91 349.092 672.524C353.486 673.702 357.79 675.231 362.144 676.556C362.577 676.688 363.219 676.676 363.579 676.444C369.482 672.589 375.931 670.046 382.795 668.59C385.399 668.039 388.089 667.796 390.752 667.626C393.986 667.424 397.253 667.23 400.481 667.421C404.363 667.644 408.233 668.215 412.092 668.742C413.967 669 415.795 669.647 417.67 669.823C418.572 669.908 419.524 669.255 420.474 669.032C425.319 667.91 430.145 666.665 435.034 665.783C438.673 665.127 442.394 664.816 446.091 664.605C450.222 664.368 454.376 664.195 458.501 664.395C463.716 664.646 468.893 665.388 474.002 666.577C480.336 668.051 486.406 670.189 492.181 673.16C496.496 675.384 500.595 677.956 504.289 681.12C506.709 683.197 509.188 685.245 511.37 687.56C514.065 690.413 516.813 693.264 518.507 696.917C519.781 699.674 520.689 702.527 520.941 705.542C521.252 709.295 521.63 713.06 521.598 716.818C521.565 720.41 521.073 723.999 520.728 727.585C519.934 735.753 518.161 743.745 516.002 751.632C514.2 758.146 512.159 764.592 509.882 770.956C507.805 776.824 505.405 782.584 502.982 788.323C501.197 792.573 499.258 796.756 497.17 800.865C493.203 808.635 489.078 816.325 484.306 823.649C483.482 824.912 482.7 826.207 481.897 827.499C483.98 828.902 486.339 829.397 488.712 829.655C490.971 829.898 493.273 830.048 495.529 829.878C499.142 829.608 502.742 829.093 506.334 828.592C509.891 828.094 513.374 827.083 517.03 827.35C520.675 827.616 523.288 830.388 523.039 833.804C522.881 835.966 521.888 837.82 520.452 839.405C513.67 846.888 505.156 851.423 495.418 853.658C491.718 854.508 487.903 854.944 484.115 855.299C480.88 855.584 477.63 855.661 474.386 855.527C472.007 855.439 469.648 854.895 467.217 854.543C466.971 856.767 466.739 859.084 466.458 861.393L465.324 870.249C464.981 873.056 464.715 875.874 464.36 878.681C464.015 881.405 463.584 884.115 463.221 886.837C462.884 889.371 462.635 891.92 462.254 894.451C461.677 898.33 461.123 902.218 460.364 906.067C459.456 910.667 458.067 915.12 455.791 919.271C453.02 924.337 449.091 928.195 444.087 931.052C438.931 933.996 433.291 935.528 427.581 936.812C423.532 937.723 419.369 937.869 415.271 937.497C408.166 936.855 402.102 933.817 397.517 928.307C393.143 923.048 390.181 917.024 389.123 910.201C388.625 906.955 388.238 903.692 387.963 900.419C387.646 896.78 387.407 893.135 387.248 889.485ZM395.234 842.745C395.278 845.177 395.026 847.608 395.038 850.04C395.088 861.357 395.17 872.678 395.267 883.998C395.284 885.847 395.375 887.701 395.507 889.547C395.785 893.414 396.061 897.284 396.436 901.14C396.705 903.879 397.071 906.609 397.502 909.328C398.117 913.175 399.869 916.603 401.855 919.881C403.566 922.699 405.796 925.09 408.729 926.742C413.715 929.546 419.079 929.78 424.487 928.749C428.141 928.055 431.732 926.933 435.277 925.775C438.766 924.656 441.952 922.751 444.588 920.206C447.075 917.798 448.839 914.859 450.028 911.616C452.334 905.329 453.058 898.705 454.01 892.137C454.367 889.676 454.678 887.209 455.003 884.745C455.375 881.941 455.75 879.141 456.107 876.337C456.377 874.245 456.617 872.156 456.872 870.067C457.238 867.067 457.622 864.07 457.971 861.07C458.237 858.75 458.46 856.421 458.7 854.095C459.005 851.121 459.33 848.156 459.597 845.177C459.796 842.921 459.714 840.621 460.115 838.403C460.851 834.34 462.772 830.883 466.376 828.645C467.882 827.713 469.587 827.098 471.257 826.307L470.97 825.87C469.426 823.866 467.844 821.895 466.329 819.867C463.95 816.686 462.239 813.138 460.52 809.572C458.891 806.191 456.898 802.992 455.185 799.649C452.193 793.819 449.146 788.004 446.39 782.065C442.924 774.595 440.193 766.866 439.335 758.593C438.969 755.095 438.875 751.597 439.587 748.131C440.721 742.594 443.609 738.264 448.473 735.293C452.984 732.539 458.009 731.648 463.156 731.37C466.35 731.197 469.563 731.338 472.877 731.338L472.769 730.778C470.706 726.466 468.781 722.08 466.522 717.873C463.341 711.932 459.263 706.576 454.728 701.604C451.381 697.908 447.704 694.525 443.741 691.497C439.821 688.529 435.69 685.878 431.281 683.713C426.043 681.107 420.512 679.14 414.805 677.854C409.282 676.629 403.73 675.879 398.064 675.817C393.236 675.765 388.438 675.987 383.732 677.074C376.631 678.718 370.136 681.642 364.49 686.376C361.363 688.997 358.57 691.992 356.173 695.294C353.34 699.176 351.061 703.377 349.109 707.774C346.432 713.812 344.595 720.091 343.335 726.548C342.708 729.771 342.216 733.014 341.715 736.257C341.539 737.396 341.527 738.554 341.422 739.857L343.566 738.741L345.658 737.804C352.739 734.566 360.072 732.483 367.953 732.721C371.305 732.82 374.504 733.485 377.486 734.953C383.199 737.771 386.539 742.562 387.992 748.62C388.994 752.804 389.683 757.069 390.351 761.326C390.872 764.648 391.408 768.006 391.467 771.357C391.552 776.256 391.306 781.166 391.039 786.062C390.811 790.224 389.95 794.328 388.484 798.231C385.836 805.31 382.883 812.273 380.126 819.311C379.215 821.637 378.515 824.042 377.656 826.6L381.137 826.603C381.559 826.611 381.989 826.623 382.396 826.72C385.563 827.467 388.314 828.902 390.567 831.34C393.579 834.574 395.155 838.359 395.234 842.745ZM334.745 809.186C332.95 804.961 331.867 800.469 331.54 795.891C331.235 791.572 331.748 787.277 332.193 782.977C332.621 778.813 332.984 774.63 333.107 770.452C333.315 763.576 332.853 756.718 332.524 749.848C332.328 745.758 332.803 741.618 333.166 737.52C333.494 733.828 333.904 730.128 334.604 726.489C335.773 720.384 337.329 714.366 339.541 708.533C341.636 703.002 344.05 697.62 347.448 692.771C349.783 689.443 352.426 686.341 354.966 683.089L354.21 682.819C345.939 680.194 337.531 678.138 328.88 677.244C324.793 676.819 320.688 676.573 316.59 676.327C315.33 676.254 314.053 676.424 312.79 676.544C309.664 676.846 306.497 676.963 303.421 677.549C298.186 678.545 293.161 680.221 288.512 682.948C284.397 685.369 280.79 688.564 277.889 692.355C274.646 696.548 272.457 701.288 270.89 706.339C269.038 712.301 268.153 718.438 267.916 724.629C267.708 730.058 267.605 735.516 268.543 740.924C269.237 744.946 269.703 749.016 270.471 753.026C271.503 758.495 272.661 763.939 273.945 769.354C275.8 777.1 277.657 784.852 279.857 792.504C281.961 799.831 284.331 807.094 286.909 814.271C289.013 820.128 291.447 825.876 294.011 831.545C295.681 835.239 297.702 838.796 299.823 842.253C302.076 845.927 304.643 849.413 308.117 852.079C312.509 855.442 315.904 855.967 320.369 852.272C322.279 850.693 323.894 848.736 325.558 846.876C328.197 843.923 330.746 840.882 333.377 837.914C336.726 834.138 340.115 830.399 343.481 826.635C344.193 825.841 344.882 825.021 345.573 824.218L344.422 823.213C340.271 819.248 336.978 814.474 334.745 809.186ZM461.721 696.677C464.474 699.875 467.086 703.193 469.549 706.62C474.269 713.24 478.069 720.47 480.843 728.112C482.073 731.496 483.058 734.912 482.618 738.612C482.313 741.205 482.334 743.833 482.108 746.44C481.918 748.608 481.572 750.765 481.294 752.927C480.872 756.185 480.263 759.437 480.081 762.709C479.905 765.826 480.09 768.973 480.286 772.093C480.482 775.266 480.91 778.424 481.2 781.588C481.528 785.183 481.974 788.769 482.073 792.369C482.155 795.322 481.892 798.29 481.637 801.243C481.309 804.781 480.45 808.25 479.088 811.532C478.142 813.858 477.014 816.108 475.95 818.435L476.378 818.886L477.028 819.39L477.688 818.218C483.22 809.513 488.135 800.431 492.397 791.039C495.13 784.977 497.723 778.852 500.173 772.67C503.993 763.06 507.079 753.174 509.404 743.098C510.459 738.574 511.268 733.98 511.982 729.387C512.542 725.795 513.005 722.162 513.11 718.538C513.219 714.694 513.008 710.821 512.653 706.989C512.387 704.095 511.672 701.183 509.861 698.824C506.943 695.036 503.797 691.415 499.927 688.547C496.666 686.136 493.414 683.654 489.919 681.627C484.373 678.407 478.37 676.269 472.098 674.81C465.972 673.383 459.772 672.768 453.532 672.636C449.853 672.557 446.155 672.952 442.484 673.301C439.156 673.611 435.849 674.145 432.5 674.584C436.095 676.605 439.643 678.404 442.982 680.522C450.014 684.976 456.318 690.334 461.721 696.677ZM370.373 821.373C372.644 814.107 375.74 807.164 378.737 800.186C381.172 794.522 382.499 788.561 382.941 782.432C383.161 779.411 383.103 776.353 382.953 773.323C382.807 769.953 382.498 766.591 382.027 763.251C381.397 758.991 380.683 754.729 379.675 750.548C378.582 746.024 375.828 742.872 371.105 741.709C368.231 741.003 365.372 741.032 362.463 741.492C355.364 742.608 348.866 745.225 342.813 749.057C341.595 749.827 340.921 750.451 341.135 752.194C341.58 755.897 341.677 759.659 341.659 763.395C341.636 768.683 341.41 773.971 341.211 779.256C341.146 780.976 340.897 782.692 340.71 784.406C340.429 787.031 339.881 789.653 339.898 792.275C339.916 794.977 340.191 797.739 340.848 800.355C342.931 808.652 347.337 815.438 354.564 820.228C359.009 823.175 363.925 824.657 369.324 824.941C369.682 823.702 370.013 822.533 370.373 821.373ZM361.889 750.214C360.937 748.219 361.481 746.563 363.685 745.796C364.224 745.611 364.774 745.406 365.331 745.354C366.102 745.277 366.878 745.333 367.654 745.333C370.452 745.351 373.142 745.74 375.447 747.516C376.93 748.658 377.328 750.167 376.367 751.726C375.005 753.932 372.934 755.039 370.385 755.25C366.374 755.581 363.559 753.712 361.889 750.214ZM473.144 749.484L474.055 741.501C474.187 740.435 473.627 740.142 472.73 740.115C469.909 740.039 467.091 739.937 464.27 739.89C461.094 739.831 457.997 740.341 455.056 741.548C451.792 742.893 449.308 745.043 448.291 748.597C447.547 751.215 447.312 753.952 447.6 756.659C447.996 760.848 448.945 764.965 450.421 768.905C452.395 774.158 454.458 779.408 456.928 784.441C460.27 791.253 464.05 797.851 467.601 804.56C468.547 806.35 469.35 808.222 470.337 810.311C472.331 806.155 473.419 801.623 473.53 797.016C473.627 793.204 473.325 789.384 473.103 785.572C472.965 783.24 472.634 780.92 472.408 778.594C472.095 775.354 471.614 772.11 471.538 768.861C471.465 765.557 471.699 762.234 471.98 758.933C472.244 755.774 472.766 752.637 473.144 749.484ZM466.789 746.924C465.74 749.815 463.502 751.45 460.596 751.928C457.889 752.376 455.516 751.377 453.752 749.215C452.495 747.677 452.976 745.857 454.859 744.814C457.021 743.619 459.397 743.317 462.201 743.136C462.966 743.273 464.108 743.394 465.198 743.701C466.777 744.146 467.363 745.342 466.789 746.924ZM383.006 835.995C381.459 834.729 379.408 834.656 377.938 836.045C376.109 837.773 374.501 839.748 372.893 841.693C371.038 843.943 369.292 846.281 366.901 848.024C363.418 850.559 359.349 851.607 355.265 852.601C352.019 853.392 348.755 854.127 345.5 854.883L345.459 855.305C346.426 855.75 347.36 856.31 348.371 856.629C353.337 858.199 358.391 858.984 363.641 858.539C367.426 858.214 371.035 857.388 374.454 855.768C379.162 853.538 382.786 850.002 385.865 845.895C386.381 845.209 386.615 844.195 386.674 843.311C386.882 840.188 385.297 837.864 383.006 835.995ZM473.665 834.642C471.23 835.459 469.25 836.704 468.661 839.338C468.26 841.119 468.113 842.962 467.958 844.787C467.929 845.109 468.33 845.701 468.635 845.783C470.51 846.278 472.396 846.861 474.312 847.034C476.671 847.248 479.067 847.181 481.44 847.063C484.001 846.935 486.579 846.768 489.104 846.346C495.049 845.344 500.806 843.721 505.915 840.346C507.761 839.13 509.583 837.888 511.417 836.651L511.265 836.391C509.311 836.681 507.362 837.035 505.399 837.243C501.403 837.671 497.404 838.122 493.394 838.354C491.457 838.465 489.494 838.093 487.543 837.935C484.268 837.668 481.068 836.941 478.3 835.189C476.703 834.182 475.367 834.07 473.665 834.642Z" fill="#336791"/>
<path d="M220.306 947.297C224.512 946.615 228.768 946.283 233.029 946.307C239.577 946.307 244.379 947.83 247.426 950.572C250.244 953.01 251.92 956.742 251.92 961.315C251.92 965.962 250.546 969.618 247.956 972.284C244.452 976.017 238.739 977.921 232.265 977.921C230.284 977.921 228.456 977.845 226.936 977.464V998.033H220.306V947.297ZM226.936 972.053C228.383 972.434 230.211 972.586 232.42 972.586C240.415 972.586 245.293 968.701 245.293 961.617C245.293 954.838 240.494 951.562 233.182 951.562C230.287 951.562 228.078 951.791 226.936 952.096V972.053ZM292.062 979.289C292.062 992.924 282.614 998.868 273.702 998.868C263.724 998.868 256.03 991.556 256.03 979.898C256.03 967.559 264.104 960.322 274.312 960.322C284.902 960.319 292.062 968.016 292.062 979.289ZM262.812 979.67C262.812 987.744 267.459 993.838 274.01 993.838C280.408 993.838 285.204 987.82 285.204 979.518C285.204 973.271 282.084 965.35 274.159 965.35C266.234 965.35 262.812 972.662 262.812 979.67ZM299.601 991.172C301.581 992.467 305.085 993.838 308.437 993.838C313.312 993.838 315.597 991.4 315.597 988.354C315.597 985.154 313.695 983.402 308.741 981.574C302.114 979.213 298.991 975.557 298.991 971.139C298.991 965.197 303.79 960.322 311.712 960.322C315.444 960.322 318.723 961.389 320.779 962.607L319.104 967.482C316.836 966.085 314.225 965.347 311.563 965.35C307.602 965.35 305.393 967.635 305.393 970.377C305.393 973.424 307.604 974.795 312.403 976.623C318.802 979.061 322.077 982.26 322.077 987.744C322.077 994.219 317.05 998.789 308.29 998.789C304.253 998.789 300.521 997.799 297.931 996.275L299.601 991.172ZM338.756 950.569V961.157H348.351V966.261H338.756V986.142C338.756 990.712 340.048 993.302 343.783 993.302C345.093 993.321 346.399 993.167 347.668 992.845L347.973 997.872C346.681 998.405 344.621 998.786 342.034 998.786C338.911 998.786 336.395 997.796 334.795 995.968C332.894 993.987 332.205 990.712 332.205 986.37V966.261H326.492V961.157H332.205V952.321L338.756 950.569ZM387.201 961.16C387.046 963.826 386.896 966.797 386.896 971.291V992.695C386.896 1001.15 385.221 1006.33 381.641 1009.53C378.061 1012.88 372.881 1013.95 368.234 1013.95C363.816 1013.95 358.941 1012.88 355.968 1010.9L357.644 1005.8C360.081 1007.32 363.89 1008.69 368.46 1008.69C375.315 1008.69 380.343 1005.11 380.343 995.821V991.708H380.19C378.134 995.136 374.173 997.878 368.46 997.878C359.319 997.878 352.769 990.108 352.769 979.898C352.769 967.406 360.919 960.322 369.374 960.322C375.775 960.322 379.279 963.674 380.879 966.721H381.031L381.336 961.16H387.201ZM380.27 975.709C380.27 974.566 380.193 973.576 379.889 972.662C378.67 968.777 375.395 965.578 370.52 965.578C364.118 965.578 359.551 970.986 359.551 979.518C359.551 986.754 363.207 992.771 370.443 992.771C374.557 992.771 378.289 990.182 379.736 985.916C380.117 984.773 380.272 983.479 380.272 982.336V975.709H380.27ZM397.558 972.662C397.558 968.32 397.481 964.588 397.253 961.16H403.121L403.347 968.396H403.651C405.327 963.445 409.364 960.322 413.858 960.322C414.62 960.322 415.15 960.398 415.76 960.551V966.873C415.01 966.71 414.245 966.633 413.478 966.645C408.755 966.645 405.4 970.225 404.489 975.252C404.301 976.283 404.199 977.327 404.185 978.375V998.027H397.558V972.662ZM425.439 980.813C425.592 989.877 431.378 993.609 438.081 993.609C442.883 993.609 445.774 992.771 448.288 991.705L449.431 996.504C447.069 997.57 443.032 998.789 437.167 998.789C425.817 998.789 419.038 991.324 419.038 980.203C419.038 969.082 425.589 960.319 436.329 960.319C448.364 960.319 451.563 970.907 451.563 977.687C451.563 979.058 451.411 980.124 451.335 980.81H425.439V980.813ZM445.092 976.014C445.165 971.748 443.337 965.121 435.799 965.121C429.02 965.121 426.049 971.367 425.513 976.014H445.092ZM459.181 989.953C462.772 992.11 466.875 993.267 471.063 993.305C477.843 993.305 481.804 989.725 481.804 984.545C481.804 979.746 479.062 977.004 472.13 974.338C463.751 971.367 458.571 967.025 458.571 959.789C458.571 951.791 465.198 945.85 475.177 945.85C480.433 945.85 484.241 947.068 486.526 948.363L484.698 953.771C481.702 952.161 478.35 951.323 474.948 951.334C467.94 951.334 465.274 955.523 465.274 959.027C465.274 963.826 468.395 966.188 475.481 968.93C484.165 972.284 488.583 976.471 488.583 984.012C488.583 991.934 482.718 998.789 470.606 998.789C465.655 998.789 460.247 997.342 457.502 995.514L459.181 989.953ZM539.999 1005.57C533.377 1003.83 526.822 1001.85 520.347 999.627C519.28 999.246 518.214 998.865 517.224 998.865C505.036 998.408 494.601 989.42 494.601 972.891C494.601 956.437 504.655 945.85 518.519 945.85C532.458 945.85 541.525 956.666 541.525 971.824C541.525 985.002 535.432 993.457 526.9 996.428V996.732C532.004 998.027 537.564 999.246 541.906 1000.01L539.999 1005.57ZM534.515 972.129C534.515 961.846 529.186 951.255 518.29 951.255C507.093 951.255 501.608 961.614 501.685 972.738C501.608 983.631 507.626 993.457 517.985 993.457C528.576 993.457 534.515 983.859 534.515 972.129ZM550.127 946.687H556.757V992.467H578.694V998.027H550.127V946.687Z" fill="#336791"/>
<path d="M1184.8 328.828C1183.61 328.828 1182.43 328.516 1181.39 327.907L1170.5 321.464C1168.87 320.556 1169.66 320.231 1170.2 320.046C1172.37 319.29 1172.81 319.113 1175.12 317.807C1175.37 317.671 1175.68 317.72 1175.93 317.868L1184.29 322.836C1184.45 322.92 1184.62 322.963 1184.8 322.963C1184.98 322.963 1185.15 322.92 1185.31 322.836L1217.92 304.011C1218.08 303.921 1218.2 303.792 1218.29 303.637C1218.38 303.482 1218.42 303.306 1218.42 303.128V265.486C1218.42 265.305 1218.38 265.127 1218.29 264.97C1218.2 264.812 1218.07 264.68 1217.92 264.586L1185.31 245.777C1185.16 245.693 1184.99 245.648 1184.81 245.648C1184.63 245.648 1184.46 245.693 1184.31 245.777L1151.71 264.59C1151.55 264.684 1151.42 264.815 1151.33 264.972C1151.24 265.128 1151.2 265.305 1151.19 265.486V303.128C1151.19 303.49 1151.4 303.831 1151.71 303.999L1160.64 309.165C1165.49 311.585 1168.46 308.733 1168.46 305.865V268.695C1168.46 268.174 1168.88 267.759 1169.41 267.759H1173.54C1174.06 267.759 1174.49 268.174 1174.49 268.695V305.865C1174.49 312.333 1170.96 316.044 1164.83 316.044C1162.94 316.044 1161.46 316.044 1157.32 314.005L1148.77 309.082C1147.72 308.476 1146.86 307.607 1146.26 306.563C1145.66 305.519 1145.35 304.336 1145.35 303.132V265.49C1145.35 263.045 1146.65 260.764 1148.77 259.548L1181.38 240.698C1182.43 240.126 1183.61 239.826 1184.81 239.826C1186 239.826 1187.18 240.126 1188.23 240.698L1220.85 259.548C1222.96 260.768 1224.27 263.049 1224.27 265.49V303.132C1224.27 304.336 1223.95 305.519 1223.35 306.563C1222.75 307.607 1221.89 308.475 1220.85 309.082L1188.23 327.912C1187.19 328.516 1186.01 328.832 1184.8 328.828ZM1194.88 302.894C1180.6 302.894 1177.62 296.339 1177.62 290.845C1177.62 290.595 1177.72 290.356 1177.9 290.179C1178.07 290.003 1178.31 289.904 1178.56 289.904H1182.78C1183 289.903 1183.22 289.983 1183.39 290.129C1183.57 290.275 1183.68 290.478 1183.72 290.701C1184.35 294.995 1186.25 297.161 1194.88 297.161C1201.75 297.161 1204.68 295.608 1204.68 291.959C1204.68 289.855 1203.85 288.297 1193.17 287.249C1184.25 286.366 1178.73 284.397 1178.73 277.251C1178.73 270.672 1184.27 266.743 1193.57 266.743C1204.02 266.743 1209.19 270.372 1209.84 278.155C1209.85 278.286 1209.84 278.418 1209.79 278.542C1209.75 278.667 1209.68 278.781 1209.6 278.878C1209.51 278.972 1209.4 279.047 1209.28 279.098C1209.16 279.15 1209.04 279.177 1208.91 279.178H1204.67C1204.46 279.179 1204.25 279.106 1204.08 278.972C1203.91 278.838 1203.8 278.652 1203.75 278.443C1202.73 273.923 1200.27 272.48 1193.57 272.48C1186.07 272.48 1185.19 275.098 1185.19 277.05C1185.19 279.421 1186.22 280.111 1196.35 281.451C1206.37 282.778 1211.14 284.652 1211.14 291.7C1211.14 298.821 1205.22 302.894 1194.88 302.894Z" fill="#83CD29"/>
<path d="M1117.64 278.205C1118.93 277.453 1119.72 276.08 1119.72 274.588V264.915C1119.72 263.427 1118.94 262.055 1117.64 261.303L1083.27 241.348C1082.64 240.978 1081.92 240.783 1081.18 240.781C1080.45 240.78 1079.72 240.972 1079.09 241.339L1044.5 261.307C1043.87 261.674 1043.34 262.201 1042.97 262.836C1042.61 263.47 1042.42 264.19 1042.41 264.923V304.85C1042.41 306.35 1043.22 307.739 1044.53 308.482L1078.89 328.064C1080.16 328.791 1081.71 328.795 1082.99 328.088L1103.78 316.533C1104.1 316.353 1104.37 316.091 1104.56 315.773C1104.75 315.454 1104.85 315.092 1104.85 314.721C1104.85 314.351 1104.76 313.987 1104.57 313.667C1104.39 313.346 1104.12 313.08 1103.8 312.896L1069 292.924C1068.68 292.742 1068.42 292.479 1068.23 292.162C1068.05 291.844 1067.95 291.484 1067.95 291.116V278.599C1067.95 277.851 1068.35 277.165 1068.99 276.795L1079.83 270.549C1080.15 270.365 1080.51 270.268 1080.87 270.268C1081.24 270.268 1081.6 270.365 1081.91 270.549L1092.75 276.795C1093.07 276.977 1093.33 277.24 1093.52 277.556C1093.7 277.873 1093.8 278.233 1093.8 278.599V288.445C1093.8 288.813 1093.89 289.175 1094.07 289.495C1094.26 289.814 1094.52 290.079 1094.84 290.263C1095.16 290.446 1095.52 290.542 1095.89 290.541C1096.26 290.539 1096.62 290.44 1096.94 290.253L1117.64 278.205Z" fill="#404137"/>
<path d="M1080.67 276.331C1080.79 276.262 1080.93 276.226 1081.07 276.226C1081.21 276.226 1081.35 276.262 1081.47 276.331L1088.11 280.165C1088.35 280.309 1088.51 280.576 1088.51 280.859V288.523C1088.51 288.811 1088.35 289.074 1088.11 289.218L1081.47 293.048C1081.35 293.118 1081.21 293.156 1081.07 293.156C1080.93 293.156 1080.79 293.118 1080.67 293.048L1074.04 289.218C1073.91 289.148 1073.81 289.047 1073.74 288.925C1073.67 288.803 1073.63 288.664 1073.63 288.523V280.859C1073.63 280.576 1073.79 280.309 1074.04 280.165L1080.67 276.331Z" fill="#83CD29"/>
<path d="M990.669 292.275C990.669 292.645 990.472 292.99 990.147 293.179L978.271 300.025C978.113 300.118 977.933 300.167 977.749 300.167C977.566 300.167 977.386 300.118 977.227 300.025L965.351 293.179C965.193 293.087 965.061 292.955 964.97 292.797C964.878 292.638 964.83 292.458 964.829 292.275V278.558C964.829 278.188 965.031 277.839 965.351 277.65L977.227 270.795C977.386 270.7 977.567 270.65 977.751 270.65C977.936 270.65 978.117 270.7 978.275 270.795L990.156 277.65C990.313 277.743 990.443 277.876 990.534 278.036C990.625 278.195 990.673 278.375 990.673 278.558V292.275H990.669ZM993.879 190.708C993.56 190.534 993.202 190.445 992.839 190.451C992.476 190.456 992.121 190.556 991.808 190.74C991.495 190.924 991.235 191.185 991.054 191.499C990.872 191.814 990.775 192.169 990.772 192.532V245.605C990.771 245.861 990.703 246.112 990.576 246.334C990.448 246.556 990.265 246.741 990.045 246.871C989.822 246.998 989.57 247.065 989.313 247.065C989.057 247.065 988.804 246.998 988.582 246.871L979.919 241.878C979.285 241.512 978.566 241.32 977.834 241.32C977.102 241.32 976.382 241.512 975.748 241.878L941.155 261.841C940.52 262.208 939.992 262.736 939.625 263.371C939.258 264.007 939.064 264.727 939.064 265.461V305.4C939.064 306.892 939.861 308.269 941.151 309.021L975.744 328.996C977.034 329.744 978.629 329.744 979.923 328.996L1014.52 309.021C1015.16 308.653 1015.68 308.125 1016.05 307.489C1016.42 306.854 1016.61 306.134 1016.61 305.4V205.843C1016.61 204.33 1015.79 202.933 1014.47 202.193L993.879 190.708Z" fill="#404137"/>
<path d="M872.134 241.126C872.769 240.758 873.489 240.565 874.222 240.565C874.955 240.565 875.675 240.758 876.309 241.126L910.902 261.085C912.192 261.833 912.99 263.214 912.99 264.705V304.657C912.99 306.148 912.192 307.529 910.902 308.277L876.314 328.253C875.678 328.618 874.957 328.811 874.224 328.811C873.491 328.811 872.77 328.618 872.134 328.253L837.554 308.277C836.92 307.909 836.393 307.381 836.027 306.745C835.66 306.11 835.467 305.39 835.466 304.657V264.701C835.466 263.214 836.264 261.833 837.554 261.085L872.134 241.126Z" fill="#83CD29"/>
<path d="M809.228 264.372C809.228 262.868 808.439 261.488 807.14 260.744L772.56 240.842C771.979 240.505 771.324 240.318 770.653 240.296H770.296C769.625 240.318 768.97 240.506 768.389 240.842L733.805 260.744C733.168 261.112 732.64 261.641 732.273 262.278C731.906 262.915 731.713 263.637 731.713 264.372L731.787 317.959C731.787 318.707 732.177 319.401 732.831 319.763C733.143 319.952 733.502 320.053 733.868 320.053C734.234 320.053 734.593 319.952 734.906 319.763L755.453 307.993C756.751 307.221 757.544 305.861 757.544 304.369V279.335C757.544 277.839 758.333 276.462 759.628 275.714L768.381 270.676C769.013 270.304 769.735 270.11 770.468 270.113C771.183 270.113 771.915 270.294 772.552 270.676L781.297 275.714C782.591 276.462 783.388 277.839 783.388 279.335V304.369C783.388 305.861 784.19 307.229 785.48 307.993L806.027 319.763C806.344 319.944 806.702 320.038 807.067 320.038C807.432 320.037 807.791 319.94 808.107 319.758C808.423 319.575 808.685 319.313 808.868 318.997C809.051 318.682 809.148 318.324 809.15 317.959L809.228 264.372Z" fill="#404137"/>
<path d="M1566.5 382.4C1566.5 381.725 1566.73 381.05 1566.5 380.375C1566.05 379.7 1565.82 379.25 1565.38 378.8C1564.25 377.45 1563.12 376.325 1561.78 374.975L1548.5 361.475L1558.85 350.9L1564.47 344.825C1565.38 343.925 1566.5 342.125 1566.5 340.775V339.875C1566.5 337.85 1565.6 336.725 1563.57 336.275L1564.03 336.5H1562.45C1561.1 336.5 1557.27 340.1 1556.38 341.225C1553 344.6 1550.75 347.75 1546.25 351.125V324.35C1546.25 321.875 1544.9 320.75 1542.43 320.75H1541.75C1539.27 320.75 1537.25 321.875 1537.25 324.35V382.625C1537.25 385.1 1539.27 386 1541.75 386H1542.43C1544.9 386 1546.25 384.875 1546.25 382.625V372.275L1553 378.8C1555.02 380.825 1557.05 382.175 1558.85 383.975C1559.75 384.875 1561.55 386 1562.9 386H1563.57C1565.82 386 1566.5 384.875 1566.95 383.075L1566.5 383.3V382.4ZM1654.48 336.5H1653.57C1648.62 336.5 1644.12 337.85 1640.07 340.775C1633.32 345.725 1629.5 352.25 1629.5 360.8V382.85C1629.5 385.325 1630.4 386 1632.88 386H1633.55C1636.02 386 1638.5 385.1 1638.5 382.85V362.15C1638.5 357.65 1639.4 353.375 1642.77 350C1645.48 347.3 1648.85 345.05 1652.68 345.05C1655.6 345.05 1658.98 344.375 1658.98 340.775C1658.98 338.075 1656.95 336.5 1654.48 336.5ZM1619.82 347.75C1617.35 343.7 1613.97 340.55 1609.7 338.525C1601.82 334.7 1593.5 334.25 1585.85 338.75L1584.72 339.425C1581.57 341.225 1578.88 343.475 1576.85 346.4C1571 354.95 1570.32 364.625 1575.5 373.625L1575.95 374.525C1578.2 378.35 1581.12 381.5 1584.95 383.525C1593.05 388.025 1601.83 388.475 1609.93 383.975L1610.6 383.525C1612.85 382.175 1613.3 379.925 1612.18 377.675C1611.73 376.775 1610.83 376.1 1609.93 375.65H1609.47C1607.9 375.425 1603.62 377.225 1602.05 377.9C1598.9 378.35 1595.3 378.575 1592.15 377.45L1609.25 362.6C1611.73 360.35 1614.43 357.875 1617.12 355.85C1619.38 354.05 1621.62 351.575 1619.82 348.425V347.75ZM1604.3 355.85L1585.18 372.275C1584.5 371.6 1584.05 370.7 1583.6 370.025C1582.25 367.775 1581.35 365.075 1581.35 362.375C1581.12 355.625 1583.6 350 1589.68 346.625C1594.18 343.925 1599.12 343.475 1604.07 345.275C1606.55 346.175 1609.48 347.75 1611.05 350C1608.8 352.025 1606.33 353.825 1604.3 355.85ZM1422.5 320.75H1421.83C1419.35 320.75 1418 321.65 1418 324.125V342.35C1413.5 338.3 1408.1 336.725 1401.8 336.725H1400C1395.73 336.725 1391.67 337.4 1387.85 339.65C1379.75 344.375 1375.25 351.35 1375.25 360.8V362.6C1375.25 366.875 1376.38 370.475 1378.62 374.3C1383.35 382.4 1390.78 386.45 1400 386.45H1401.8C1406.08 386.45 1410.57 385.775 1414.17 383.75C1422.27 379.025 1427 372.05 1427 362.825V324.575C1427 321.65 1424.97 320.75 1422.5 320.75ZM1415.52 369.8C1412.15 375.425 1407.2 378.575 1400.68 378.575C1397.98 378.575 1395.27 377.9 1393.02 376.55C1387.17 373.4 1383.8 368.225 1383.8 361.475C1383.8 359 1384.25 356.75 1385.38 354.5C1388.52 347.975 1393.7 344.375 1400.9 344.375C1404.5 344.375 1407.65 345.5 1410.35 347.525C1415.08 350.9 1417.77 355.4 1417.77 361.25C1418 364.4 1417.1 367.1 1415.52 369.8ZM1457.6 336.5H1456.25C1451.97 336.5 1447.7 337.175 1444.1 339.425C1436 344.15 1431.5 351.125 1431.5 360.575V362.375C1431.5 366.65 1432.62 370.25 1434.88 374.075C1439.6 382.175 1447.02 386.225 1456.47 386.225H1458.28C1462.55 386.225 1466.83 385.55 1470.65 383.525C1478.75 378.8 1483.47 371.825 1483.47 362.6V360.8C1483.47 356.75 1482.12 353.375 1480.33 350C1475.38 341 1467.5 336.5 1457.6 336.5ZM1472 369.8C1468.62 375.2 1463.9 378.575 1457.38 378.575C1454.45 378.575 1451.53 377.9 1448.83 376.325C1443.2 372.95 1440.05 368.225 1440.05 361.7C1440.05 359.225 1440.5 356.975 1441.62 354.725C1444.78 348.2 1449.95 344.6 1457.15 344.6C1460.53 344.6 1463.45 345.5 1466.15 347.3C1471.1 350.675 1474.03 355.4 1474.03 361.475C1474.25 364.175 1473.57 367.1 1472 369.8ZM1527.12 339.65L1526.9 339.875C1523.07 337.4 1518.8 336.5 1514.3 336.5H1512.5C1508.23 336.5 1503.95 337.175 1500.35 339.425C1492.25 344.15 1487.75 351.125 1487.75 360.35V362.15C1487.75 364.4 1488.2 366.425 1488.65 368.675C1492.25 381.05 1501.92 388.025 1514.97 387.125C1518.57 386.9 1528.25 385.775 1528.25 380.375V379.475C1528.25 377.45 1526.68 375.65 1524.88 375.2L1524.65 374.75H1523.07L1522.62 375.425C1520.6 376.325 1517.22 378.125 1514.97 378.125C1512.27 378.125 1509.35 378.125 1506.88 376.775C1500.35 373.625 1496.53 368.45 1496.53 361.25C1496.53 358.775 1496.97 356.525 1498.1 354.275C1501.25 347.975 1506.43 343.925 1513.62 344.15C1514.98 344.15 1517.45 344.825 1518.8 345.5C1519.93 345.95 1522.85 347.75 1524.2 347.75H1524.65L1524.88 347.3C1526.9 346.85 1528.47 345.275 1528.47 343.25V342.35C1528.47 341.45 1528.02 340.775 1527.57 340.1L1527.12 339.65ZM1386.05 269.45L1386.28 269.9C1404.05 300.05 1435.1 312.65 1469.08 312.65C1534.78 312.65 1589 283.175 1613.75 221.3C1630.4 222.2 1647.5 217.25 1655.6 201.275L1657.62 197.225L1653.57 194.975C1643.9 189.35 1631.07 188.675 1620.28 191.825C1618.93 180.125 1611.28 170 1602.28 162.8L1598.68 159.875L1595.75 163.475C1589.68 170.45 1587.88 182.15 1588.78 191.15C1589.45 197.675 1591.48 204.425 1595.53 209.825C1592.38 211.625 1589 214.1 1585.85 215.225C1579.55 217.475 1572.57 219.725 1565.82 219.725H1550.75V188H1521.5V131.75H1487.75V158.75H1431.5V188H1402.25V219.5H1377.05L1376.6 222.875C1375.48 237.275 1377.27 251.225 1383.35 264.5L1386.05 269.45ZM1521.5 194.75H1546.25V219.5H1521.5V194.75ZM1492.25 136.25H1517V161H1492.25V136.25ZM1492.25 165.5H1517V190.25H1492.25V165.5ZM1492.25 194.75H1517V219.5H1492.25V194.75ZM1463 165.5H1487.75V190.25H1463V165.5ZM1463 194.75H1487.75V219.5H1463V194.75ZM1465.47 264.95C1465.47 268.775 1462.32 271.925 1458.5 271.925C1454.68 271.925 1451.53 268.775 1451.53 264.95C1451.53 261.125 1454.68 257.975 1458.5 257.975C1462.32 258.2 1465.47 261.125 1465.47 264.95ZM1436 165.5H1458.5V190.25H1436V165.5ZM1436 194.75H1458.5V219.5H1436V194.75ZM1406.75 194.75H1431.5V219.5H1406.75V194.75ZM1412.15 280.25C1415.75 280.25 1419.35 280.25 1422.73 280.025C1431.5 279.575 1439.15 278.45 1445.45 276.65C1450.62 288.575 1460.08 299.6 1476.95 307.7L1469.08 307.925C1433.53 307.7 1414.4 295.775 1398.65 280.025C1403.37 280.25 1407.88 280.25 1412.15 280.25ZM1458.5 269.9C1461.2 269.9 1463.45 267.65 1463.45 264.95C1463.45 264.275 1463.22 263.6 1463 263.15C1462.55 263.825 1462.1 264.275 1461.2 264.275C1460.08 264.275 1459.17 263.375 1459.17 262.25C1459.17 261.575 1459.62 260.9 1460.08 260.45C1459.85 260.225 1459.18 260 1458.5 260C1455.8 260 1453.55 262.25 1453.55 264.95C1453.78 267.65 1455.8 269.9 1458.5 269.9Z" fill="#019BC6"/>
<path d="M871.621 816.041V714.068H877.156V730.109C877.81 729.399 878.414 728.644 878.964 727.85C881.226 723.155 884.779 719.201 889.208 716.454C893.636 713.706 898.756 712.277 903.967 712.336C916.582 711.959 926.825 716.628 932.85 727.85C936.683 734.821 938.793 742.608 939.003 750.561C939.212 758.514 937.516 766.401 934.055 773.565C928.444 786.142 914.587 792.393 899.75 790.096C895.133 789.703 890.688 788.159 886.82 785.607C882.953 783.055 879.786 779.575 877.608 775.485V816.041H871.621ZM877.156 750.143C877.646 755.113 877.834 758.653 878.399 762.117C880.583 775.749 888.641 783.845 901.294 785.313C907.235 786.29 913.331 785.176 918.542 782.162C923.754 779.147 927.759 774.419 929.875 768.782C932.306 762.985 933.477 756.736 933.308 750.451C933.139 744.167 931.635 737.99 928.896 732.331C926.637 727.279 922.796 723.099 917.953 720.423C913.109 717.746 907.526 716.718 902.047 717.495C896.903 717.867 892.002 719.834 888.027 723.12C884.052 726.407 881.2 730.851 879.868 735.833C878.688 740.547 877.783 745.324 877.156 750.143ZM1051.92 764C1051.08 771.18 1047.66 777.81 1042.3 782.659C1036.94 787.507 1030 790.244 1022.77 790.359C999.577 791.527 988.694 776.125 986.962 758.352C985.76 748.699 987.327 738.905 991.481 730.109C994.373 724.076 999.111 719.121 1005.01 715.959C1010.9 712.798 1017.65 711.594 1024.28 712.524C1030.58 713.058 1036.55 715.56 1041.35 719.676C1046.15 723.791 1049.53 729.312 1051.02 735.457C1052.19 741.053 1053.06 746.71 1053.61 752.402H992.648C991.518 768.519 1000.18 781.473 1012.46 784.598C1027.74 788.364 1040.81 781.736 1045.56 767.201C1046.61 763.473 1048.53 762.946 1051.92 764ZM992.648 747.243H1047.14C1046.8 730.072 1036.1 717.645 1021.61 717.457C1005.19 717.193 993.363 729.168 992.648 747.243ZM1063.14 764.377H1068.49C1068.69 768.311 1069.96 772.115 1072.18 775.37C1074.4 778.626 1077.47 781.206 1081.06 782.828C1085.57 784.857 1090.48 785.843 1095.42 785.712C1100.36 785.582 1105.21 784.339 1109.61 782.075C1112 780.995 1114.01 779.207 1115.36 776.951C1116.7 774.695 1117.33 772.081 1117.14 769.46C1117.28 766.933 1116.59 764.429 1115.17 762.329C1113.76 760.23 1111.7 758.648 1109.31 757.824C1103.43 755.64 1097.18 754.435 1091.19 752.515C1084.96 750.741 1078.87 748.513 1072.97 745.85C1063.33 741.143 1062.73 722.804 1073.65 717.005C1079.24 713.85 1085.53 712.145 1091.95 712.046C1098.37 711.947 1104.71 713.458 1110.4 716.44C1113.84 718.344 1116.63 721.252 1118.38 724.778C1120.12 728.303 1120.76 732.278 1120.19 736.172H1115.6C1115.6 735.946 1115.18 735.758 1115.18 735.532C1114.62 720.884 1102.34 716.365 1089.16 717.645C1085.23 718.13 1081.41 719.29 1077.86 721.072C1075.74 722.045 1073.96 723.654 1072.79 725.678C1071.62 727.701 1071.1 730.039 1071.31 732.369C1071.32 734.699 1072.05 736.971 1073.39 738.872C1074.74 740.773 1076.65 742.211 1078.84 742.988C1084.64 745.097 1090.7 746.452 1096.65 748.109C1101.44 749.427 1106.41 750.293 1111.04 751.875C1114.31 752.946 1117.17 754.986 1119.26 757.722C1121.34 760.459 1122.55 763.764 1122.71 767.201C1123.27 770.966 1122.63 774.811 1120.88 778.191C1119.13 781.571 1116.36 784.313 1112.96 786.029C1100.38 793.146 1079.67 791.263 1070.45 782.263C1068.11 779.912 1066.26 777.12 1065 774.051C1063.75 770.981 1063.12 767.693 1063.14 764.377ZM1190.49 736.172H1185.49C1185.49 735.494 1185.22 734.892 1185.15 734.327C1185.07 730.573 1183.7 726.961 1181.27 724.095C1178.84 721.23 1175.51 719.285 1171.82 718.587C1164.85 716.589 1157.43 716.947 1150.69 719.603C1148.03 720.367 1145.68 721.971 1144.01 724.177C1142.33 726.383 1141.41 729.071 1141.39 731.842C1141.3 734.562 1142.14 737.232 1143.79 739.4C1145.44 741.568 1147.78 743.101 1150.43 743.741C1157.96 746.076 1165.68 747.507 1173.32 749.615C1175.8 750.21 1178.24 750.952 1180.63 751.837C1184.19 753.113 1187.29 755.436 1189.52 758.501C1191.75 761.567 1193 765.232 1193.11 769.019C1193.22 772.806 1192.18 776.538 1190.14 779.727C1188.09 782.916 1185.13 785.414 1181.64 786.895C1176.33 789.308 1170.57 790.585 1164.74 790.643C1158.9 790.701 1153.12 789.54 1147.75 787.234C1143.35 785.332 1139.62 782.126 1137.09 778.046C1134.56 773.966 1133.34 769.209 1133.6 764.414H1138.49C1139.4 768.783 1141.35 772.866 1144.19 776.309C1147.03 779.751 1150.67 782.45 1154.78 784.17C1158.9 785.891 1163.37 786.583 1167.82 786.185C1172.26 785.787 1176.54 784.312 1180.29 781.887C1182.57 780.701 1184.46 778.886 1185.75 776.657C1187.03 774.428 1187.64 771.878 1187.52 769.31C1187.63 766.781 1186.92 764.284 1185.48 762.197C1184.05 760.111 1181.98 758.549 1179.57 757.749C1173.7 755.565 1167.45 754.398 1161.46 752.477C1155.2 750.731 1149.07 748.528 1143.12 745.887C1133.71 741.256 1132.96 723.068 1143.69 717.269C1149.35 713.981 1155.76 712.215 1162.31 712.142C1168.86 712.07 1175.31 713.693 1181.04 716.854C1184.32 718.812 1186.96 721.679 1188.64 725.109C1190.32 728.539 1190.96 732.382 1190.49 736.172ZM862.47 788.514C860.499 789.261 858.322 789.259 856.351 788.51C854.381 787.761 852.753 786.315 851.776 784.447C845.638 775.259 838.86 766.485 832.345 757.523L829.521 753.758C821.764 764.151 814.007 774.13 806.927 784.485C806.005 786.27 804.465 787.659 802.595 788.394C800.724 789.128 798.651 789.157 796.76 788.477L825.868 749.427L798.794 714.143C800.743 713.439 802.875 713.43 804.83 714.116C806.785 714.802 808.444 716.142 809.526 717.909C815.814 727.097 822.781 735.871 829.709 745.172C836.676 735.946 843.567 727.135 850.006 718.022C850.934 716.266 852.474 714.911 854.335 714.217C856.196 713.523 858.247 713.537 860.098 714.256L849.592 728.189C844.885 734.402 840.253 740.653 835.358 746.716C834.963 747.069 834.648 747.501 834.432 747.985C834.216 748.468 834.104 748.992 834.104 749.521C834.104 750.051 834.216 750.574 834.432 751.058C834.648 751.541 834.963 751.973 835.358 752.327C844.358 764.264 853.282 776.238 862.47 788.514ZM986.058 713.767V719.038C982.25 718.789 978.431 719.34 974.849 720.658C971.266 721.975 968 724.029 965.261 726.686C962.521 729.344 960.37 732.547 958.945 736.088C957.52 739.628 956.853 743.429 956.988 747.243V788.665H951.603V714.068H956.875V729.356C963.389 718.21 973.443 714.068 986.058 713.767ZM727.021 748.938C727.812 745.172 728.301 741.067 729.393 737.226C735.908 714.068 762.455 704.428 780.719 718.775C791.413 727.172 794.087 739.072 793.559 752.477H733.309C732.33 776.427 749.615 790.887 771.719 783.506C775.304 782.223 778.514 780.068 781.058 777.235C783.603 774.401 785.401 770.979 786.292 767.276C787.459 763.511 789.342 762.87 792.919 763.962C792.33 768.547 790.709 772.938 788.178 776.805C785.648 780.673 782.273 783.917 778.309 786.293C771.758 789.875 764.242 791.294 756.836 790.347C749.431 789.4 742.514 786.136 737.075 781.021C731.695 774.971 728.441 767.327 727.812 759.255C727.812 757.975 727.322 756.695 727.058 755.49C727.033 753.255 727.021 751.071 727.021 748.938ZM733.385 747.318H787.873C787.534 729.959 776.576 717.645 761.966 717.532C745.698 717.306 734.063 729.356 733.347 747.243L733.385 747.318Z" fill="black"/>
<g clip-path="url(#clip1_0_1)">
<path d="M1720.64 795.617C1732.29 704.499 1667.87 621.196 1576.81 609.557C1485.75 597.918 1402.01 662.266 1390.36 753.217C1378.71 844.168 1443.13 927.638 1534.19 939.443C1625.42 951.082 1708.82 886.734 1720.64 795.617Z" fill="#FF6C37"/>
<path d="M1615.6 714.974L1545.35 785.141L1525.54 765.355C1594.62 696.352 1601.45 702.337 1615.6 714.974Z" fill="white"/>
<path d="M1545.35 786.804C1544.85 786.804 1544.51 786.638 1544.18 786.305L1524.2 766.519C1523.54 765.854 1523.54 764.856 1524.2 764.191C1594.45 694.024 1601.78 700.675 1616.59 713.977C1616.93 714.309 1617.09 714.642 1617.09 715.14C1617.09 715.639 1616.93 715.972 1616.59 716.304L1546.34 786.305C1546.18 786.638 1545.68 786.804 1545.35 786.804ZM1527.87 765.355L1545.35 782.814L1613.1 715.14C1600.78 704.166 1592.46 700.841 1527.87 765.355Z" fill="#FF6C37"/>
<path d="M1565.49 805.261L1546.34 786.139L1616.59 715.972C1635.41 734.927 1607.27 765.688 1565.49 805.261Z" fill="white"/>
<path d="M1565.49 806.923C1564.99 806.923 1564.66 806.757 1564.32 806.424L1545.18 787.303C1544.85 786.971 1544.85 786.638 1544.85 786.139C1544.85 785.64 1545.01 785.308 1545.35 784.975L1615.6 714.808C1616.26 714.143 1617.26 714.143 1617.93 714.808C1622.25 718.799 1624.58 724.452 1624.42 730.271C1624.09 748.728 1603.11 772.172 1566.82 806.424C1566.32 806.757 1565.82 806.923 1565.49 806.923ZM1548.67 786.139C1559.33 796.947 1563.82 801.27 1565.49 802.933C1593.45 776.329 1620.59 749.06 1620.76 730.271C1620.92 725.948 1619.26 721.625 1616.43 718.3L1548.67 786.139Z" fill="#FF6C37"/>
<path d="M1525.87 765.854L1540.02 779.987C1540.35 780.32 1540.35 780.652 1540.02 780.985C1539.85 781.151 1539.85 781.151 1539.69 781.151L1510.39 787.469C1508.89 787.636 1507.56 786.638 1507.22 785.141C1507.06 784.31 1507.39 783.479 1507.89 782.98L1524.87 766.02C1525.2 765.688 1525.7 765.521 1525.87 765.854Z" fill="white"/>
<path d="M1509.89 789.132C1507.39 789.132 1505.56 787.137 1505.56 784.643C1505.56 783.479 1506.06 782.315 1506.89 781.483L1523.87 764.524C1524.87 763.692 1526.2 763.692 1527.2 764.524L1541.35 778.657C1542.35 779.488 1542.35 780.985 1541.35 781.982C1541.02 782.315 1540.68 782.481 1540.18 782.647L1510.89 788.966C1510.55 788.966 1510.22 789.132 1509.89 789.132ZM1525.37 767.683L1509.05 783.978C1508.72 784.31 1508.56 784.809 1508.89 785.308C1509.05 785.807 1509.55 785.973 1510.05 785.807L1537.52 779.821L1525.37 767.683Z" fill="#FF6C37"/>
<path d="M1652.72 676.066C1642.06 665.757 1624.92 666.09 1614.6 676.898C1604.28 687.705 1604.61 704.665 1615.43 714.974C1624.25 723.454 1637.57 724.951 1648.06 718.632L1629.08 699.677L1652.72 676.066Z" fill="white"/>
<path d="M1634.07 724.119C1618.26 724.119 1605.44 711.316 1605.44 695.52C1605.44 679.724 1618.26 666.921 1634.07 666.921C1641.4 666.921 1648.56 669.748 1653.88 674.902C1654.22 675.235 1654.38 675.568 1654.38 676.066C1654.38 676.565 1654.22 676.898 1653.88 677.23L1631.41 699.677L1649.06 717.302C1649.72 717.967 1649.72 718.965 1649.06 719.63C1648.89 719.796 1648.89 719.796 1648.72 719.962C1644.39 722.623 1639.23 724.119 1634.07 724.119ZM1634.07 670.413C1620.09 670.413 1608.77 681.72 1608.94 695.687C1608.94 709.654 1620.26 720.96 1634.24 720.794C1638.07 720.794 1641.9 719.962 1645.39 718.133L1627.91 700.841C1627.58 700.508 1627.41 700.176 1627.41 699.677C1627.41 699.178 1627.58 698.846 1627.91 698.513L1650.22 676.233C1645.73 672.408 1640.07 670.413 1634.07 670.413Z" fill="#FF6C37"/>
<path d="M1653.22 676.565L1652.88 676.233L1629.08 699.677L1647.89 718.466C1649.72 717.302 1651.55 715.972 1653.05 714.475C1663.71 704 1663.71 687.04 1653.22 676.565Z" fill="white"/>
<path d="M1648.06 720.295C1647.56 720.295 1647.22 720.129 1646.89 719.796L1627.91 700.841C1627.58 700.508 1627.41 700.176 1627.41 699.677C1627.41 699.178 1627.58 698.846 1627.91 698.513L1651.55 674.902C1652.22 674.237 1653.22 674.237 1653.88 674.902L1654.38 675.235C1665.54 686.375 1665.54 704.333 1654.55 715.639C1652.88 717.302 1651.05 718.799 1649.06 719.962C1648.56 720.129 1648.22 720.295 1648.06 720.295ZM1631.41 699.677L1648.22 716.471C1649.56 715.639 1650.89 714.475 1651.89 713.478C1661.37 704 1661.87 688.537 1652.72 678.56L1631.41 699.677Z" fill="#FF6C37"/>
<path d="M1618.43 717.967C1614.43 713.977 1607.94 713.977 1603.94 717.967L1541.18 780.652L1551.67 791.127L1618.09 732.932C1622.42 729.274 1622.75 722.789 1619.09 718.466C1618.76 718.3 1618.59 718.133 1618.43 717.967Z" fill="white"/>
<path d="M1551.5 792.79C1551.01 792.79 1550.67 792.624 1550.34 792.291L1539.85 781.816C1539.19 781.151 1539.19 780.153 1539.85 779.488L1602.61 716.803C1607.27 712.148 1614.76 712.148 1619.42 716.803C1624.09 721.459 1624.09 728.941 1619.42 733.597C1619.26 733.763 1619.09 733.929 1618.92 734.096L1552.5 792.291C1552.34 792.624 1552 792.79 1551.5 792.79ZM1543.51 780.652L1551.67 788.8L1616.93 731.602C1620.59 728.609 1620.92 723.122 1617.93 719.464C1614.93 715.806 1609.44 715.473 1605.77 718.466C1605.61 718.632 1605.44 718.799 1605.11 718.965L1543.51 780.652Z" fill="#FF6C37"/>
<path d="M1493.07 851.983C1492.41 852.316 1492.07 852.981 1492.24 853.646L1495.07 865.618C1495.74 867.28 1494.74 869.276 1492.91 869.775C1491.58 870.273 1490.08 869.775 1489.24 868.777L1470.93 850.653L1530.7 790.961L1551.34 791.294L1565.32 805.261C1561.99 808.087 1541.85 827.541 1493.07 851.983Z" fill="white"/>
<path d="M1491.74 871.437C1490.41 871.437 1489.08 870.938 1488.25 869.941L1470.1 851.817C1469.77 851.484 1469.6 851.152 1469.6 850.653C1469.6 850.154 1469.77 849.822 1470.1 849.489L1529.86 789.797C1530.2 789.465 1530.7 789.298 1531.03 789.298L1551.67 789.631C1552.17 789.631 1552.5 789.797 1552.84 790.13L1566.82 804.097C1567.15 804.429 1567.32 804.928 1567.32 805.427C1567.32 805.926 1567.15 806.258 1566.65 806.591L1565.49 807.588C1547.84 823.052 1523.87 838.515 1494.07 853.313L1496.9 865.119C1497.4 867.28 1496.4 869.608 1494.41 870.772C1493.41 871.271 1492.57 871.437 1491.74 871.437ZM1473.43 850.653L1490.58 867.613C1491.08 868.444 1492.07 868.777 1492.91 868.278C1493.74 867.779 1494.07 866.782 1493.57 865.95L1490.74 853.979C1490.41 852.482 1491.08 851.152 1492.41 850.487C1521.87 835.688 1545.68 820.391 1563.16 805.261L1550.84 792.956L1531.69 792.624L1473.43 850.653Z" fill="#FF6C37"/>
<path d="M1456.78 864.953L1471.1 850.653L1492.41 871.936L1458.45 869.608C1456.95 869.442 1455.95 868.112 1456.12 866.615C1456.12 865.95 1456.28 865.285 1456.78 864.953Z" fill="white"/>
<path d="M1492.41 873.433L1458.28 871.105C1455.78 870.938 1454.12 868.777 1454.29 866.283C1454.45 865.285 1454.79 864.287 1455.62 863.622L1469.93 849.323C1470.6 848.658 1471.6 848.658 1472.26 849.323L1493.57 870.606C1494.07 871.105 1494.24 871.77 1493.91 872.435C1493.57 873.1 1493.07 873.433 1492.41 873.433ZM1471.1 852.981L1457.95 866.116C1457.45 866.449 1457.45 867.28 1457.95 867.613C1458.11 867.779 1458.28 867.945 1458.61 867.945L1488.08 869.941L1471.1 852.981Z" fill="#FF6C37"/>
<path d="M1524.87 798.61C1523.87 798.61 1523.2 797.778 1523.2 796.947C1523.2 796.448 1523.37 796.116 1523.7 795.783L1539.85 779.654C1540.52 778.989 1541.52 778.989 1542.18 779.654L1552.67 790.13C1553.17 790.629 1553.34 791.127 1553.17 791.792C1553 792.291 1552.5 792.79 1551.84 792.956L1525.2 798.61C1525.04 798.61 1524.87 798.61 1524.87 798.61ZM1541.02 783.146L1530.03 794.12L1548.01 790.296L1541.02 783.146Z" fill="#FF6C37"/>
<path d="M1551.34 791.294L1533.03 795.284C1531.69 795.617 1530.36 794.785 1530.03 793.455C1529.86 792.624 1530.03 791.792 1530.7 791.127L1540.85 780.985L1551.34 791.294Z" fill="white"/>
<path d="M1532.69 796.947C1530.36 796.947 1528.53 795.118 1528.53 792.79C1528.53 791.626 1529.03 790.629 1529.7 789.797L1539.85 779.654C1540.52 778.989 1541.52 778.989 1542.18 779.654L1552.67 790.13C1553.17 790.629 1553.34 791.127 1553.17 791.792C1553 792.291 1552.5 792.79 1551.84 792.956L1533.53 796.947C1533.19 796.947 1532.86 796.947 1532.69 796.947ZM1541.02 783.146L1532.03 792.125C1531.69 792.458 1531.69 792.79 1531.86 793.123C1532.03 793.455 1532.36 793.621 1532.86 793.621L1548.18 790.296L1541.02 783.146Z" fill="#FF6C37"/>
<path d="M1653.38 692.527C1653.05 691.53 1651.89 691.031 1650.89 691.363C1649.89 691.696 1649.39 692.86 1649.72 693.858C1649.72 694.024 1649.89 694.19 1649.89 694.356C1650.89 696.352 1650.55 698.846 1649.22 700.675C1648.56 701.506 1648.72 702.67 1649.39 703.335C1650.22 704 1651.39 703.834 1652.05 703.003C1654.55 699.843 1655.05 695.853 1653.38 692.527Z" fill="#FF6C37"/>
</g>
<g clip-path="url(#clip2_0_1)">
<path fill-rule="evenodd" clip-rule="evenodd" d="M562.936 297.83L517.27 275.769L560.53 255.537C563.885 253.963 565.855 249.813 563.534 245.943L559.039 240.739C556.138 237.567 552.987 235.252 549.16 236.758L517.019 248.873C516.317 249.137 515.548 249.171 514.826 248.966L502.385 245.442C501.462 245.181 500.47 245.426 499.775 246.085L486.466 258.718C483.484 241.619 476.533 225.883 466.553 212.53L486.008 212.378C486.846 212.37 487.616 211.913 488.02 211.178L494.907 198.687C495.265 198.036 495.831 197.525 496.514 197.235L528.35 183.66C530.305 182.827 531.508 178.765 531.133 176.13L530.097 166.623C529.25 163.893 525.417 161.49 523.584 162.167L475.694 178.859L491.978 133.962C493.237 130.477 491.695 126.151 487.319 125.054L480.459 124.554C476.164 124.362 472.3 124.952 470.658 128.724L456.498 160.017C456.189 160.7 455.669 161.267 455.014 161.633L443.725 167.939C442.887 168.407 442.359 169.281 442.333 170.239L441.855 188.589C428.235 179.018 412.329 172.494 395.105 170.014L408.764 156.139C409.352 155.541 409.572 154.673 409.339 153.868L405.375 140.166C405.17 139.453 405.207 138.691 405.484 138.002L418.398 105.892C419.192 103.921 417.171 100.197 415.04 98.5995L407.587 92.6099C405.057 91.2795 400.647 92.2896 399.829 94.0634L377.769 139.731L357.537 96.4706C355.963 93.1142 351.814 91.1461 347.943 93.4649L342.739 97.9618C339.566 100.863 337.252 104.012 338.759 107.841L350.873 139.98C351.138 140.683 351.17 141.451 350.966 142.173L347.443 154.616C347.18 155.538 347.425 156.529 348.086 157.225L360.718 170.533C343.618 173.517 327.883 180.466 314.531 190.447L314.377 170.992C314.372 170.153 313.912 169.385 313.179 168.979L300.687 162.093C300.037 161.735 299.526 161.17 299.234 160.487L285.661 128.649C284.828 126.694 280.766 125.491 278.129 125.868L268.623 126.903C265.894 127.751 263.489 131.584 264.166 133.416L280.86 181.306L235.963 165.023C232.476 163.762 228.15 165.306 227.053 169.682L226.553 176.541C226.362 180.835 226.952 184.701 230.724 186.341L262.017 200.501C262.701 200.811 263.268 201.332 263.633 201.987L269.94 213.276C270.407 214.112 271.282 214.641 272.24 214.666L290.588 215.144C281.019 228.764 274.493 244.671 272.015 261.895L258.139 248.236C257.542 247.647 256.674 247.429 255.868 247.66L242.166 251.624C241.453 251.831 240.692 251.792 240.003 251.515L207.893 238.601C205.921 237.809 202.198 239.83 200.601 241.959L194.61 249.414C193.279 251.943 194.291 256.353 196.065 257.17L241.731 279.23L198.47 299.463C195.114 301.037 193.146 305.187 195.465 309.057L199.961 314.261C202.863 317.433 206.013 319.748 209.841 318.242L241.982 306.126C242.683 305.863 243.451 305.829 244.174 306.034L256.616 309.558C257.538 309.819 258.53 309.574 259.226 308.915L272.534 296.282C275.517 313.381 282.467 329.117 292.448 342.47L272.992 342.622C272.154 342.629 271.385 343.087 270.98 343.822L264.094 356.313C263.734 356.963 263.169 357.474 262.487 357.766L230.65 371.34C228.695 372.173 227.491 376.235 227.868 378.87L228.902 388.377C229.75 391.107 233.583 393.51 235.417 392.833L283.306 376.141L267.023 421.038C265.763 424.523 267.305 428.849 271.682 429.946L278.541 430.446C282.835 430.637 286.7 430.048 288.341 426.275L302.501 394.982C302.811 394.3 303.331 393.733 303.986 393.366L315.276 387.061C316.112 386.593 316.641 385.719 316.666 384.761L317.145 366.411C330.765 375.982 346.67 382.506 363.896 384.986L350.235 398.86C349.648 399.459 349.428 400.327 349.662 401.131L353.625 414.834C353.831 415.547 353.792 416.309 353.515 416.997L340.601 449.108C339.808 451.079 341.83 454.803 343.96 456.4L351.414 462.39C353.943 463.72 358.353 462.71 359.171 460.936L381.23 415.268L401.464 458.529C403.038 461.886 407.187 463.854 411.058 461.535L416.26 457.038C419.433 454.137 421.749 450.986 420.241 447.159L408.127 415.019C407.862 414.316 407.83 413.548 408.035 412.827L411.558 400.384C411.819 399.462 411.574 398.471 410.914 397.775L398.283 384.465C415.381 381.483 431.118 374.534 444.469 364.552L444.623 384.009C444.629 384.846 445.088 385.616 445.822 386.02L458.314 392.907C458.963 393.265 459.475 393.83 459.766 394.513L473.339 426.351C474.173 428.306 478.235 429.509 480.871 429.132L490.376 428.097C493.107 427.249 495.51 423.416 494.834 421.584L478.141 373.693L523.037 389.977C526.524 391.238 530.85 389.694 531.947 385.317L532.447 378.458C532.639 374.164 532.047 370.299 528.276 368.659L496.983 354.498C496.299 354.188 495.733 353.668 495.366 353.013L489.061 341.723C488.592 340.887 487.719 340.358 486.761 340.334L468.411 339.855C477.981 326.236 484.506 310.329 486.985 293.105L500.862 306.764C501.459 307.352 502.327 307.571 503.131 307.339L516.835 303.376C517.546 303.168 518.309 303.208 518.997 303.484L551.107 316.398C553.08 317.191 556.803 315.169 558.4 313.041L564.39 305.586C565.721 303.057 564.71 298.647 562.936 297.83ZM457.373 265.387H434.28C432.6 257.754 429.369 250.708 424.928 244.59L441.115 228.403C449.478 238.884 455.236 251.534 457.373 265.387ZM409.665 230.205C403.316 226.145 396.102 223.324 388.351 222.095V199.207C402.329 200.769 415.197 205.985 425.986 213.883L409.665 230.205ZM406.854 277.5C406.854 292.607 394.608 304.854 379.5 304.854C364.393 304.854 352.145 292.607 352.145 277.5C352.145 262.393 364.393 250.146 379.5 250.146C394.608 250.146 406.854 262.393 406.854 277.5ZM367.387 199.626V222.719C359.754 224.4 352.708 227.632 346.591 232.071L330.403 215.885C340.885 207.521 353.534 201.764 367.387 199.626ZM332.204 247.334C328.146 253.685 325.323 260.899 324.096 268.648H301.207C302.771 254.67 307.986 241.803 315.883 231.013L332.204 247.334ZM301.627 289.612H324.72C326.4 297.245 329.632 304.292 334.072 310.41L317.884 326.597C309.522 316.116 303.765 303.466 301.627 289.612ZM349.334 324.795C355.684 328.854 362.899 331.676 370.648 332.905V355.793C356.671 354.23 343.802 349.014 333.014 341.116L349.334 324.795ZM391.614 355.374V332.28C399.245 330.599 406.293 327.368 412.41 322.929L428.596 339.115C418.115 347.478 405.465 353.236 391.614 355.374ZM426.796 307.665C430.854 301.315 433.676 294.101 434.905 286.352H457.794C456.23 300.329 451.014 313.197 443.117 323.986L426.796 307.665Z" fill="#E16426"/>
</g>
<path d="M227.321 560V487.273H242.697V519.339H243.656L269.828 487.273H288.259L261.27 519.837L288.578 560H270.183L250.261 530.099L242.697 539.332V560H227.321ZM311.11 528.466V560H295.982V505.455H310.4V515.078H311.039C312.246 511.906 314.271 509.396 317.112 507.55C319.952 505.679 323.397 504.744 327.445 504.744C331.233 504.744 334.536 505.573 337.353 507.23C340.17 508.887 342.36 511.255 343.923 514.332C345.485 517.386 346.266 521.032 346.266 525.27V560H331.138V527.969C331.162 524.631 330.31 522.027 328.582 520.156C326.853 518.262 324.474 517.315 321.444 517.315C319.408 517.315 317.609 517.753 316.046 518.629C314.507 519.505 313.3 520.784 312.424 522.464C311.572 524.122 311.134 526.122 311.11 528.466ZM383.047 561.065C377.436 561.065 372.607 559.929 368.559 557.656C364.534 555.36 361.433 552.116 359.255 547.926C357.077 543.712 355.988 538.729 355.988 532.976C355.988 527.365 357.077 522.441 359.255 518.203C361.433 513.965 364.498 510.663 368.452 508.295C372.429 505.928 377.093 504.744 382.444 504.744C386.042 504.744 389.392 505.324 392.493 506.484C395.618 507.621 398.341 509.337 400.661 511.634C403.005 513.93 404.828 516.818 406.13 520.298C407.432 523.755 408.083 527.803 408.083 532.443V536.598H362.025V527.223H393.843C393.843 525.045 393.369 523.116 392.422 521.435C391.475 519.754 390.161 518.44 388.48 517.493C386.823 516.522 384.894 516.037 382.692 516.037C380.396 516.037 378.36 516.57 376.584 517.635C374.832 518.677 373.459 520.085 372.465 521.861C371.471 523.613 370.962 525.566 370.938 527.72V536.634C370.938 539.332 371.435 541.664 372.429 543.629C373.447 545.594 374.88 547.109 376.726 548.175C378.573 549.24 380.763 549.773 383.296 549.773C384.977 549.773 386.516 549.536 387.912 549.062C389.309 548.589 390.505 547.879 391.499 546.932C392.493 545.985 393.251 544.825 393.772 543.452L407.763 544.375C407.053 547.737 405.597 550.672 403.395 553.182C401.217 555.668 398.4 557.609 394.944 559.006C391.511 560.379 387.545 561.065 383.047 561.065ZM429.62 505.455L439.635 524.524L449.897 505.455H465.416L449.613 532.727L465.842 560H450.395L439.635 541.143L429.052 560H413.427L429.62 532.727L413.995 505.455H429.62ZM483.243 560.923C480.899 560.923 478.886 560.095 477.206 558.438C475.548 556.757 474.72 554.744 474.72 552.401C474.72 550.08 475.548 548.092 477.206 546.435C478.886 544.777 480.899 543.949 483.243 543.949C485.515 543.949 487.504 544.777 489.208 546.435C490.913 548.092 491.765 550.08 491.765 552.401C491.765 553.963 491.363 555.395 490.558 556.697C489.777 557.976 488.747 559.006 487.468 559.787C486.19 560.545 484.781 560.923 483.243 560.923ZM504.185 505.455H519.313V562.699C519.313 566.913 518.485 570.322 516.827 572.926C515.17 575.53 512.791 577.436 509.69 578.643C506.612 579.851 502.931 580.455 498.646 580.455C498.125 580.455 497.628 580.443 497.154 580.419C496.657 580.419 496.136 580.407 495.592 580.384V568.558C495.994 568.582 496.349 568.594 496.657 568.594C496.941 568.617 497.249 568.629 497.58 568.629C500.019 568.629 501.723 568.108 502.694 567.067C503.688 566.049 504.185 564.51 504.185 562.45V505.455ZM511.714 498.423C509.488 498.423 507.571 497.678 505.961 496.186C504.351 494.671 503.546 492.86 503.546 490.753C503.546 488.67 504.351 486.882 505.961 485.391C507.571 483.875 509.488 483.118 511.714 483.118C513.987 483.118 515.916 483.875 517.502 485.391C519.112 486.882 519.917 488.67 519.917 490.753C519.917 492.86 519.112 494.671 517.502 496.186C515.916 497.678 513.987 498.423 511.714 498.423ZM576.815 521.009L562.966 521.861C562.729 520.677 562.22 519.612 561.439 518.665C560.657 517.694 559.627 516.925 558.349 516.357C557.094 515.765 555.591 515.469 553.839 515.469C551.495 515.469 549.519 515.966 547.909 516.96C546.299 517.931 545.494 519.233 545.494 520.866C545.494 522.169 546.015 523.269 547.056 524.169C548.098 525.069 549.886 525.791 552.419 526.335L562.291 528.324C567.594 529.413 571.547 531.165 574.152 533.58C576.756 535.994 578.058 539.167 578.058 543.097C578.058 546.671 577.004 549.808 574.897 552.507C572.814 555.206 569.949 557.313 566.304 558.828C562.681 560.32 558.503 561.065 553.768 561.065C546.547 561.065 540.795 559.562 536.51 556.555C532.248 553.525 529.751 549.406 529.017 544.197L543.896 543.416C544.346 545.618 545.435 547.299 547.163 548.459C548.891 549.595 551.105 550.163 553.804 550.163C556.455 550.163 558.586 549.654 560.196 548.636C561.829 547.595 562.658 546.257 562.681 544.624C562.658 543.25 562.078 542.126 560.941 541.25C559.805 540.35 558.053 539.664 555.686 539.19L546.24 537.308C540.913 536.243 536.948 534.396 534.343 531.768C531.763 529.141 530.473 525.791 530.473 521.719C530.473 518.215 531.42 515.196 533.314 512.663C535.231 510.13 537.918 508.177 541.375 506.804C544.855 505.431 548.927 504.744 553.591 504.744C560.48 504.744 565.901 506.2 569.855 509.112C573.832 512.024 576.152 515.99 576.815 521.009Z" fill="#E16426"/>
</g>
<defs>
<clipPath id="clip0_0_1">
<rect width="1920" height="1080" fill="white"/>
</clipPath>
<clipPath id="clip1_0_1">
<rect width="333" height="343" fill="white" transform="translate(1389 603)"/>
</clipPath>
<clipPath id="clip2_0_1">
<rect width="371" height="371" fill="white" transform="translate(194 92)"/>
</clipPath>
</defs>
</svg>
