<svg width="361" height="73" viewBox="0 0 361 73" fill="none" xmlns="http://www.w3.org/2000/svg">
<path d="M22.8871 23.0945C22.745 21.6622 22.1354 20.5495 21.0582 19.7564C19.9811 18.9633 18.5192 18.5668 16.6726 18.5668C15.4179 18.5668 14.3584 18.7443 13.4943 19.0994C12.6302 19.4427 11.9673 19.9221 11.5057 20.5376C11.0559 21.1532 10.831 21.8516 10.831 22.6328C10.8073 23.2839 10.9434 23.852 11.2393 24.3374C11.5471 24.8227 11.9673 25.2429 12.5 25.598C13.0327 25.9413 13.6482 26.2431 14.3466 26.5036C15.045 26.7521 15.7907 26.9652 16.5838 27.1428L19.8509 27.924C21.437 28.2791 22.893 28.7526 24.2188 29.3445C25.5445 29.9363 26.6927 30.6643 27.6634 31.5284C28.634 32.3925 29.3857 33.4105 29.9183 34.5824C30.4628 35.7543 30.741 37.0978 30.7528 38.6129C30.741 40.8383 30.1728 42.7678 29.0483 44.4013C27.9356 46.023 26.3258 47.2836 24.2188 48.1832C22.1236 49.071 19.5964 49.5149 16.6371 49.5149C13.7015 49.5149 11.1446 49.0651 8.96662 48.1655C6.80043 47.2659 5.10772 45.9342 3.88849 44.1705C2.68111 42.3949 2.04782 40.1991 1.98864 37.5831H9.42827C9.51113 38.8023 9.86032 39.8203 10.4759 40.6371C11.1032 41.442 11.9377 42.0516 12.9794 42.4659C14.0329 42.8684 15.2225 43.0696 16.5483 43.0696C17.8504 43.0696 18.9808 42.8802 19.9396 42.5014C20.9103 42.1226 21.6619 41.5959 22.1946 40.9212C22.7273 40.2464 22.9936 39.4711 22.9936 38.5952C22.9936 37.7784 22.7509 37.0919 22.2656 36.5355C21.7921 35.9792 21.0938 35.5057 20.1705 35.1151C19.259 34.7244 18.1404 34.3693 16.8146 34.0497L12.8551 33.0554C9.7893 32.3097 7.36861 31.1437 5.59304 29.5575C3.81747 27.9714 2.93561 25.8348 2.94744 23.1477C2.93561 20.946 3.52154 19.0225 4.70526 17.3771C5.90081 15.7318 7.54025 14.4474 9.62358 13.5241C11.7069 12.6009 14.0743 12.1392 16.7259 12.1392C19.4247 12.1392 21.7803 12.6009 23.7926 13.5241C25.8168 14.4474 27.3911 15.7318 28.5156 17.3771C29.6402 19.0225 30.2202 20.9283 30.2557 23.0945H22.8871ZM48.2111 49.5327C45.4057 49.5327 42.9909 48.9645 40.9668 47.8281C38.9545 46.6799 37.4038 45.0582 36.3148 42.9631C35.2258 40.8561 34.6813 38.3643 34.6813 35.4879C34.6813 32.6825 35.2258 30.2204 36.3148 28.1016C37.4038 25.9827 38.9367 24.3314 40.9135 23.1477C42.9022 21.964 45.2341 21.3722 47.9093 21.3722C49.7085 21.3722 51.3835 21.6622 52.9341 22.2422C54.4966 22.8104 55.8579 23.6686 57.0179 24.8168C58.1898 25.965 59.1013 27.4091 59.7523 29.1491C60.4034 30.8774 60.7289 32.9015 60.7289 35.2216V37.299H37.6998V32.6115H53.6088C53.6088 31.5225 53.3721 30.5578 52.8986 29.7173C52.4251 28.8769 51.7682 28.2199 50.9277 27.7464C50.0991 27.2611 49.1344 27.0185 48.0336 27.0185C46.8854 27.0185 45.8674 27.2848 44.9796 27.8175C44.1036 28.3383 43.4171 29.0426 42.9199 29.9304C42.4228 30.8063 42.1683 31.7829 42.1564 32.8601V37.3168C42.1564 38.6662 42.405 39.8321 42.9022 40.8146C43.4112 41.7971 44.1273 42.5547 45.0506 43.0874C45.9739 43.62 47.0688 43.8864 48.3354 43.8864C49.1758 43.8864 49.9453 43.768 50.6436 43.5312C51.342 43.2945 51.9398 42.9394 52.437 42.4659C52.9341 41.9924 53.3129 41.4124 53.5733 40.7259L60.5691 41.1875C60.214 42.8684 59.486 44.3362 58.3851 45.5909C57.2961 46.8338 55.8875 47.8045 54.1593 48.5028C52.4429 49.1894 50.4602 49.5327 48.2111 49.5327ZM75.7147 49.4439C73.6432 49.4439 71.767 48.9112 70.0861 47.8459C68.4171 46.7687 67.0913 45.1884 66.1088 43.1051C65.1382 41.0099 64.6529 38.4413 64.6529 35.3991C64.6529 32.2741 65.156 29.6759 66.1621 27.6044C67.1683 25.5211 68.5059 23.9645 70.1749 22.9347C71.8558 21.893 73.6964 21.3722 75.6969 21.3722C77.2239 21.3722 78.4964 21.6326 79.5144 22.1534C80.5442 22.6624 81.3728 23.3016 82.0002 24.071C82.6394 24.8286 83.1247 25.5743 83.4561 26.3082H83.687V12.6364H91.2331V49H83.7757V44.6321H83.4561C83.101 45.3897 82.598 46.1413 81.9469 46.8871C81.3077 47.621 80.4732 48.2306 79.4434 48.7159C78.4254 49.2012 77.1825 49.4439 75.7147 49.4439ZM78.1117 43.4247C79.3309 43.4247 80.3607 43.0933 81.2012 42.4304C82.0534 41.7557 82.7045 40.8146 83.1543 39.6072C83.6159 38.3999 83.8468 36.9853 83.8468 35.3636C83.8468 33.742 83.6219 32.3333 83.1721 31.1378C82.7222 29.9422 82.0712 29.0189 81.2189 28.3679C80.3667 27.7169 79.3309 27.3913 78.1117 27.3913C76.8688 27.3913 75.8212 27.7287 74.9689 28.4034C74.1167 29.0781 73.4715 30.0133 73.0336 31.2088C72.5956 32.4044 72.3766 33.7893 72.3766 35.3636C72.3766 36.9498 72.5956 38.3525 73.0336 39.5717C73.4834 40.7791 74.1285 41.7261 74.9689 42.4126C75.8212 43.0874 76.8688 43.4247 78.1117 43.4247ZM107.502 49.4439C105.43 49.4439 103.554 48.9112 101.873 47.8459C100.204 46.7687 98.8784 45.1884 97.896 43.1051C96.9253 41.0099 96.44 38.4413 96.44 35.3991C96.44 32.2741 96.9431 29.6759 97.9492 27.6044C98.9554 25.5211 100.293 23.9645 101.962 22.9347C103.643 21.893 105.484 21.3722 107.484 21.3722C109.011 21.3722 110.283 21.6326 111.301 22.1534C112.331 22.6624 113.16 23.3016 113.787 24.071C114.426 24.8286 114.912 25.5743 115.243 26.3082H115.474V12.6364H123.02V49H115.563V44.6321H115.243C114.888 45.3897 114.385 46.1413 113.734 46.8871C113.095 47.621 112.26 48.2306 111.23 48.7159C110.212 49.2012 108.97 49.4439 107.502 49.4439ZM109.899 43.4247C111.118 43.4247 112.148 43.0933 112.988 42.4304C113.841 41.7557 114.492 40.8146 114.941 39.6072C115.403 38.3999 115.634 36.9853 115.634 35.3636C115.634 33.742 115.409 32.3333 114.959 31.1378C114.509 29.9422 113.858 29.0189 113.006 28.3679C112.154 27.7169 111.118 27.3913 109.899 27.3913C108.656 27.3913 107.608 27.7287 106.756 28.4034C105.904 29.0781 105.259 30.0133 104.821 31.2088C104.383 32.4044 104.164 33.7893 104.164 35.3636C104.164 36.9498 104.383 38.3525 104.821 39.5717C105.27 40.7791 105.916 41.7261 106.756 42.4126C107.608 43.0874 108.656 43.4247 109.899 43.4247ZM129.239 49V21.7273H136.803V49H129.239ZM133.039 18.2116C131.914 18.2116 130.95 17.8388 130.145 17.093C129.352 16.3355 128.955 15.4299 128.955 14.3764C128.955 13.3348 129.352 12.4411 130.145 11.6953C130.95 10.9377 131.914 10.5589 133.039 10.5589C134.163 10.5589 135.122 10.9377 135.915 11.6953C136.72 12.4411 137.123 13.3348 137.123 14.3764C137.123 15.4299 136.72 16.3355 135.915 17.093C135.122 17.8388 134.163 18.2116 133.039 18.2116ZM160.884 59.2273V44.6321H160.653C160.298 45.3897 159.795 46.1413 159.144 46.8871C158.505 47.621 157.67 48.2306 156.641 48.7159C155.623 49.2012 154.38 49.4439 152.912 49.4439C150.84 49.4439 148.964 48.9112 147.283 47.8459C145.614 46.7687 144.289 45.1884 143.306 43.1051C142.335 41.0099 141.85 38.4413 141.85 35.3991C141.85 32.2741 142.353 29.6759 143.359 27.6044C144.366 25.5211 145.703 23.9645 147.372 22.9347C149.053 21.893 150.894 21.3722 152.894 21.3722C154.421 21.3722 155.694 21.6326 156.712 22.1534C157.741 22.6624 158.57 23.3016 159.197 24.071C159.837 24.8286 160.322 25.5743 160.653 26.3082H160.973V21.7273H168.43V59.2273H160.884ZM155.309 43.4247C156.528 43.4247 157.558 43.0933 158.398 42.4304C159.251 41.7557 159.902 40.8146 160.352 39.6072C160.813 38.3999 161.044 36.9853 161.044 35.3636C161.044 33.742 160.819 32.3333 160.369 31.1378C159.92 29.9422 159.268 29.0189 158.416 28.3679C157.564 27.7169 156.528 27.3913 155.309 27.3913C154.066 27.3913 153.018 27.7287 152.166 28.4034C151.314 29.0781 150.669 30.0133 150.231 31.2088C149.793 32.4044 149.574 33.7893 149.574 35.3636C149.574 36.9498 149.793 38.3525 150.231 39.5717C150.681 40.7791 151.326 41.7261 152.166 42.4126C153.018 43.0874 154.066 43.4247 155.309 43.4247ZM205.944 23.0945C205.802 21.6622 205.192 20.5495 204.115 19.7564C203.038 18.9633 201.576 18.5668 199.729 18.5668C198.474 18.5668 197.415 18.7443 196.551 19.0994C195.687 19.4427 195.024 19.9221 194.562 20.5376C194.113 21.1532 193.888 21.8516 193.888 22.6328C193.864 23.2839 194 23.852 194.296 24.3374C194.604 24.8227 195.024 25.2429 195.557 25.598C196.089 25.9413 196.705 26.2431 197.403 26.5036C198.102 26.7521 198.847 26.9652 199.64 27.1428L202.907 27.924C204.494 28.2791 205.95 28.7526 207.275 29.3445C208.601 29.9363 209.749 30.6643 210.72 31.5284C211.691 32.3925 212.442 33.4105 212.975 34.5824C213.519 35.7543 213.798 37.0978 213.809 38.6129C213.798 40.8383 213.229 42.7678 212.105 44.4013C210.992 46.023 209.382 47.2836 207.275 48.1832C205.18 49.071 202.653 49.5149 199.694 49.5149C196.758 49.5149 194.201 49.0651 192.023 48.1655C189.857 47.2659 188.164 45.9342 186.945 44.1705C185.738 42.3949 185.104 40.1991 185.045 37.5831H192.485C192.568 38.8023 192.917 39.8203 193.532 40.6371C194.16 41.442 194.994 42.0516 196.036 42.4659C197.09 42.8684 198.279 43.0696 199.605 43.0696C200.907 43.0696 202.037 42.8802 202.996 42.5014C203.967 42.1226 204.719 41.5959 205.251 40.9212C205.784 40.2464 206.05 39.4711 206.05 38.5952C206.05 37.7784 205.808 37.0919 205.322 36.5355C204.849 35.9792 204.15 35.5057 203.227 35.1151C202.316 34.7244 201.197 34.3693 199.871 34.0497L195.912 33.0554C192.846 32.3097 190.425 31.1437 188.65 29.5575C186.874 27.9714 185.992 25.8348 186.004 23.1477C185.992 20.946 186.578 19.0225 187.762 17.3771C188.957 15.7318 190.597 14.4474 192.68 13.5241C194.764 12.6009 197.131 12.1392 199.782 12.1392C202.481 12.1392 204.837 12.6009 206.849 13.5241C208.873 14.4474 210.448 15.7318 211.572 17.3771C212.697 19.0225 213.277 20.9283 213.312 23.0945H205.944ZM231.161 49.5327C228.403 49.5327 226.018 48.9467 224.006 47.7749C222.005 46.5911 220.46 44.9458 219.371 42.8388C218.282 40.7199 217.738 38.2637 217.738 35.4702C217.738 32.6529 218.282 30.1908 219.371 28.0838C220.46 25.965 222.005 24.3196 224.006 23.1477C226.018 21.964 228.403 21.3722 231.161 21.3722C233.919 21.3722 236.299 21.964 238.299 23.1477C240.311 24.3196 241.862 25.965 242.951 28.0838C244.04 30.1908 244.585 32.6529 244.585 35.4702C244.585 38.2637 244.04 40.7199 242.951 42.8388C241.862 44.9458 240.311 46.5911 238.299 47.7749C236.299 48.9467 233.919 49.5327 231.161 49.5327ZM231.197 43.6733C232.451 43.6733 233.499 43.3182 234.339 42.608C235.18 41.8859 235.813 40.9034 236.239 39.6605C236.677 38.4176 236.896 37.0031 236.896 35.4169C236.896 33.8307 236.677 32.4162 236.239 31.1733C235.813 29.9304 235.18 28.9479 234.339 28.2259C233.499 27.5038 232.451 27.1428 231.197 27.1428C229.93 27.1428 228.865 27.5038 228.001 28.2259C227.148 28.9479 226.503 29.9304 226.065 31.1733C225.639 32.4162 225.426 33.8307 225.426 35.4169C225.426 37.0031 225.639 38.4176 226.065 39.6605C226.503 40.9034 227.148 41.8859 228.001 42.608C228.865 43.3182 229.93 43.6733 231.197 43.6733ZM249.503 49V21.7273H256.836V26.4858H257.12C257.617 24.7931 258.452 23.5147 259.624 22.6506C260.795 21.7746 262.145 21.3366 263.672 21.3366C264.051 21.3366 264.459 21.3603 264.897 21.4077C265.335 21.455 265.72 21.5201 266.051 21.603V28.3146C265.696 28.2081 265.205 28.1134 264.577 28.0305C263.95 27.9477 263.376 27.9062 262.855 27.9062C261.742 27.9062 260.748 28.1489 259.872 28.6342C259.008 29.1077 258.321 29.7706 257.812 30.6229C257.315 31.4751 257.067 32.4576 257.067 33.5703V49H249.503ZM287.451 37.3878V21.7273H295.015V49H287.753V44.0462H287.469C286.853 45.6442 285.829 46.9285 284.397 47.8991C282.977 48.8698 281.243 49.3551 279.195 49.3551C277.372 49.3551 275.768 48.9408 274.383 48.1122C272.998 47.2836 271.915 46.1058 271.134 44.5788C270.364 43.0518 269.974 41.223 269.962 39.0923V21.7273H277.526V37.7429C277.538 39.3527 277.97 40.6252 278.822 41.5604C279.674 42.4955 280.816 42.9631 282.249 42.9631C283.16 42.9631 284.012 42.7559 284.806 42.3416C285.599 41.9155 286.238 41.2881 286.723 40.4595C287.22 39.6309 287.463 38.607 287.451 37.3878ZM323.757 29.5043L316.832 29.9304C316.714 29.3385 316.46 28.8059 316.069 28.3324C315.678 27.8471 315.163 27.4624 314.524 27.1783C313.897 26.8823 313.145 26.7344 312.269 26.7344C311.097 26.7344 310.109 26.983 309.304 27.4801C308.499 27.9654 308.097 28.6165 308.097 29.4332C308.097 30.0843 308.357 30.6347 308.878 31.0845C309.399 31.5343 310.292 31.8954 311.559 32.1676L316.495 33.1619C319.147 33.7064 321.123 34.5824 322.425 35.7898C323.728 36.9972 324.379 38.5833 324.379 40.5483C324.379 42.3357 323.852 43.9041 322.798 45.2536C321.757 46.603 320.324 47.6565 318.501 48.4141C316.69 49.1598 314.601 49.5327 312.234 49.5327C308.623 49.5327 305.747 48.781 303.604 47.2777C301.474 45.7625 300.225 43.7029 299.858 41.0987L307.298 40.7081C307.522 41.8089 308.067 42.6494 308.931 43.2294C309.795 43.7976 310.902 44.0817 312.251 44.0817C313.577 44.0817 314.643 43.8272 315.447 43.3182C316.264 42.7973 316.679 42.1286 316.69 41.3118C316.679 40.6252 316.388 40.063 315.82 39.625C315.252 39.1752 314.376 38.8319 313.192 38.5952L308.469 37.6541C305.806 37.1214 303.823 36.1982 302.521 34.8842C301.231 33.5703 300.586 31.8954 300.586 29.8594C300.586 28.1075 301.059 26.5982 302.006 25.3317C302.965 24.0651 304.309 23.0885 306.037 22.402C307.777 21.7154 309.813 21.3722 312.145 21.3722C315.589 21.3722 318.3 22.1001 320.277 23.5561C322.266 25.0121 323.426 26.9948 323.757 29.5043ZM336.705 33.233V49H329.142V12.6364H336.492V26.5391H336.812C337.427 24.9292 338.422 23.6686 339.795 22.7571C341.168 21.8338 342.89 21.3722 344.962 21.3722C346.856 21.3722 348.507 21.7865 349.916 22.6151C351.336 23.4318 352.437 24.6096 353.218 26.1484C354.011 27.6754 354.402 29.5043 354.39 31.6349V49H346.826V32.9844C346.838 31.3035 346.412 29.9955 345.548 29.0604C344.695 28.1252 343.5 27.6577 341.961 27.6577C340.931 27.6577 340.02 27.8767 339.227 28.3146C338.445 28.7526 337.83 29.3918 337.38 30.2322C336.942 31.0608 336.717 32.0611 336.705 33.233Z" fill="white"/>
</svg>
